<?xml version="1.0" encoding="UTF-8"?>
<svg version="1.1" xmlns="http://www.w3.org/2000/svg" width="256" height="256">
<path d="M0 0 C1.49466797 0.04640625 1.49466797 0.04640625 3.01953125 0.09375 C8.72576635 0.40599269 12.58611868 1.03882446 17 5 C17.67646829 6.32838732 18.34231682 7.66221263 19 9 C20.44170206 10.91156039 21.94520885 12.75938469 23.46484375 14.609375 C27.85394511 21.44431147 28.92089536 29.12438051 30.1875 37 C30.36474609 38.06089844 30.54199219 39.12179688 30.72460938 40.21484375 C31.15693479 42.80879626 31.5818749 45.40372744 32 48 C32.66 48 33.32 48 34 48 C34 48.66 34 49.32 34 50 C88.78 50 143.56 50 200 50 C201.08972504 54.35890015 200.76582474 55.65288585 199.46459961 59.8190918 C199.10349594 60.99098557 198.74239227 62.16287933 198.37034607 63.37028503 C197.96498929 64.64680095 197.55897151 65.92310713 197.15234375 67.19921875 C196.73881887 68.51700396 196.32578639 69.83494377 195.91322327 71.1530304 C195.04487874 73.91831589 194.16871017 76.68097416 193.28735352 79.44213867 C192.16673683 82.9559179 191.06844332 86.47620849 189.97647762 89.99898052 C189.12778265 92.72624419 188.26560284 95.44910753 187.39966011 98.17093849 C186.79223528 100.0896792 186.19709863 102.01229636 185.60227966 103.9349823 C183.53147322 110.35357061 181.28810494 115.78595082 177.27272034 121.23176575 C175.83486975 123.10369786 175.83486975 123.10369786 174.6875 125.9375 C171.94098988 129.2943457 168.1627486 129.3859211 164 130 C160.07771142 130.28025297 156.16933604 130.31084868 152.23803711 130.31884766 C150.52431412 130.33391609 150.52431412 130.33391609 148.77597046 130.34928894 C145.02643301 130.38000414 141.27696658 130.39712377 137.52734375 130.4140625 C134.9170318 130.4327835 132.30672584 130.45235761 129.69642639 130.4727478 C123.54500681 130.51936851 117.39356993 130.55619294 111.24206501 130.58942068 C104.23346928 130.62776082 97.22496457 130.67713944 90.2164458 130.72740483 C75.81103407 130.83047585 61.4055571 130.91981628 47 131 C47.14513946 132.9130135 47.29436957 134.82571692 47.4453125 136.73828125 C47.52797363 137.80344971 47.61063477 138.86861816 47.69580078 139.96606445 C48.06137733 143.6121477 48.639482 146.59870499 50 150 C50.99 150.33 51.98 150.66 53 151 C53.6875 153.0625 53.6875 153.0625 54 155 C54.8971875 155.2165625 54.8971875 155.2165625 55.8125 155.4375 C57.56150404 155.8872439 59.28677023 156.42892341 61 157 C62.6532727 157.08700816 64.30988545 157.11601442 65.96543884 157.1111145 C67.50274406 157.11062355 67.50274406 157.11062355 69.07110596 157.11012268 C70.19482605 157.10488083 71.31854614 157.09963898 72.47631836 157.09423828 C74.93025195 157.09145168 77.38418568 157.0887818 79.83811951 157.08621216 C81.14185453 157.08316196 82.44558956 157.08011177 83.78883171 157.07696915 C87.86060223 157.06856517 91.93227841 157.07399804 96.00404358 157.08297729 C96.69128114 157.0844483 97.3785187 157.08591931 98.08658165 157.08743489 C99.49180042 157.09050555 100.89701908 157.09362558 102.30223763 157.09679389 C111.78126983 157.11798248 121.25999353 157.13165023 130.73901367 157.09960938 C137.13408026 157.07809319 143.52860553 157.08120308 149.9236365 157.11301792 C153.30774274 157.12888158 156.6908137 157.13207965 160.07487297 157.10525894 C163.8488813 157.08121741 167.62036874 157.10020942 171.39428711 157.12939453 C172.51598297 157.11200729 173.63767883 157.09462006 174.79336548 157.07670593 C182.14042907 157.19532134 182.14042907 157.19532134 184.62106514 159.51754379 C186.42749219 162.46802407 187.12047399 164.39763007 186.4375 167.8125 C185 170 185 170 182 172 C179.8159399 172.25168228 179.8159399 172.25168228 177.22679138 172.25396729 C175.75297752 172.26242676 175.75297752 172.26242676 174.24938965 172.27105713 C173.17249878 172.26700867 172.09560791 172.26296021 170.98608398 172.25878906 C169.85078751 172.2622937 168.71549103 172.26579834 167.54579163 172.26940918 C163.77916407 172.27823634 160.01272334 172.27237102 156.24609375 172.265625 C153.62874821 172.26697202 151.01140291 172.26891286 148.39405823 172.27142334 C142.8986712 172.27506446 137.40333786 172.27026387 131.90795898 172.26074219 C125.57500414 172.2498952 119.24217846 172.25335513 112.90922683 172.264395 C106.80261188 172.27461067 100.69605364 172.27346922 94.58943367 172.26763153 C91.99919682 172.26630086 89.40895666 172.26792227 86.81872368 172.27259064 C83.18562123 172.27769816 79.55276218 172.26988445 75.91967773 172.25878906 C74.85695648 172.26283752 73.79423523 172.26688599 72.6993103 172.27105713 C66.23337002 172.2346745 60.28584753 171.5029554 54 170 C52.88625 169.7525 51.7725 169.505 50.625 169.25 C47.0044853 167.52594538 46.01121929 165.45678316 44 162 C43.27103516 161.0409375 43.27103516 161.0409375 42.52734375 160.0625 C33.95431845 148.60371434 33.53371409 131.8795702 31.25578308 118.128088 C30.64578072 114.44856832 30.03004019 110.77004967 29.41271973 107.0917511 C27.65995034 96.64286283 25.91587318 86.19254051 24.17919922 75.7409668 C23.11305482 69.32517025 22.03839242 62.91082898 20.95927429 56.49720192 C20.55119996 54.06212311 20.14614593 51.62653609 19.74421692 49.19043541 C19.18250529 45.78673695 18.61089326 42.38483539 18.03710938 38.9831543 C17.79386177 37.48600891 17.79386177 37.48600891 17.54570007 35.95861816 C16.0649379 26.2955754 16.0649379 26.2955754 11.1875 18.125 C8.53345638 16.76006328 5.85893335 15.84468485 3 15 C3 14.34 3 13.68 3 13 C-2.94 13 -8.88 13 -15 13 C-17.43835616 6.90410959 -17.43835616 6.90410959 -16 3 C-11.34382409 -1.45373348 -6.04177762 -0.29152124 0 0 Z M61 159 C61 159.33 61 159.66 61 160 C100.93 160 140.86 160 182 160 C182 159.67 182 159.34 182 159 C142.07 159 102.14 159 61 159 Z " fill="#00EFD1" transform="translate(31,8)"/>
<path d="M0 0 C1.49466797 0.04640625 1.49466797 0.04640625 3.01953125 0.09375 C8.72576635 0.40599269 12.58611868 1.03882446 17 5 C17.67646829 6.32838732 18.34231682 7.66221263 19 9 C20.44170206 10.91156039 21.94520885 12.75938469 23.46484375 14.609375 C27.85394511 21.44431147 28.92089536 29.12438051 30.1875 37 C30.36474609 38.06089844 30.54199219 39.12179688 30.72460938 40.21484375 C31.15693479 42.80879626 31.5818749 45.40372744 32 48 C32.66 48 33.32 48 34 48 C34 48.66 34 49.32 34 50 C88.78 50 143.56 50 200 50 C200 50.33 200 50.66 200 51 C145.55 51.33 91.1 51.66 35 52 C34.27305308 60.723363 34.09323103 66.9936892 35.6875 75.25 C36.06287609 77.3384741 36.43786413 79.42701799 36.8125 81.515625 C37.0084375 82.57845703 37.204375 83.64128906 37.40625 84.73632812 C38.39076746 90.14793559 39.28666834 95.57395272 40.1875 101 C40.35403076 101.98387695 40.52056152 102.96775391 40.69213867 103.98144531 C43.15763278 118.65043953 43.15763278 118.65043953 43.0625 125.5 C43.05347656 126.3559375 43.04445312 127.211875 43.03515625 128.09375 C43.02355469 128.7228125 43.01195312 129.351875 43 130 C43.99 130.33 44.98 130.66 46 131 C46.19335938 132.12019531 46.38671875 133.24039063 46.5859375 134.39453125 C46.8485886 135.86725349 47.11162983 137.33990619 47.375 138.8125 C47.50132813 139.55048828 47.62765625 140.28847656 47.7578125 141.04882812 C48.40163482 144.60594646 48.96996056 146.95494084 51 150 C51.66 150.33 52.32 150.66 53 151 C53.625 153.0625 53.625 153.0625 54 155 C54.8971875 155.2165625 54.8971875 155.2165625 55.8125 155.4375 C57.56150404 155.8872439 59.28677023 156.42892341 61 157 C62.6532727 157.08700816 64.30988545 157.11601442 65.96543884 157.1111145 C67.50274406 157.11062355 67.50274406 157.11062355 69.07110596 157.11012268 C70.19482605 157.10488083 71.31854614 157.09963898 72.47631836 157.09423828 C74.93025195 157.09145168 77.38418568 157.0887818 79.83811951 157.08621216 C81.14185453 157.08316196 82.44558956 157.08011177 83.78883171 157.07696915 C87.86060223 157.06856517 91.93227841 157.07399804 96.00404358 157.08297729 C96.69128114 157.0844483 97.3785187 157.08591931 98.08658165 157.08743489 C99.49180042 157.09050555 100.89701908 157.09362558 102.30223763 157.09679389 C111.78126983 157.11798248 121.25999353 157.13165023 130.73901367 157.09960938 C137.13408026 157.07809319 143.52860553 157.08120308 149.9236365 157.11301792 C153.30774274 157.12888158 156.6908137 157.13207965 160.07487297 157.10525894 C163.8488813 157.08121741 167.62036874 157.10020942 171.39428711 157.12939453 C172.51598297 157.11200729 173.63767883 157.09462006 174.79336548 157.07670593 C182.14042907 157.19532134 182.14042907 157.19532134 184.62106514 159.51754379 C186.42749219 162.46802407 187.12047399 164.39763007 186.4375 167.8125 C185 170 185 170 182 172 C179.8159399 172.25168228 179.8159399 172.25168228 177.22679138 172.25396729 C175.75297752 172.26242676 175.75297752 172.26242676 174.24938965 172.27105713 C173.17249878 172.26700867 172.09560791 172.26296021 170.98608398 172.25878906 C169.85078751 172.2622937 168.71549103 172.26579834 167.54579163 172.26940918 C163.77916407 172.27823634 160.01272334 172.27237102 156.24609375 172.265625 C153.62874821 172.26697202 151.01140291 172.26891286 148.39405823 172.27142334 C142.8986712 172.27506446 137.40333786 172.27026387 131.90795898 172.26074219 C125.57500414 172.2498952 119.24217846 172.25335513 112.90922683 172.264395 C106.80261188 172.27461067 100.69605364 172.27346922 94.58943367 172.26763153 C91.99919682 172.26630086 89.40895666 172.26792227 86.81872368 172.27259064 C83.18562123 172.27769816 79.55276218 172.26988445 75.91967773 172.25878906 C74.85695648 172.26283752 73.79423523 172.26688599 72.6993103 172.27105713 C66.23337002 172.2346745 60.28584753 171.5029554 54 170 C52.88625 169.7525 51.7725 169.505 50.625 169.25 C47.0044853 167.52594538 46.01121929 165.45678316 44 162 C43.27103516 161.0409375 43.27103516 161.0409375 42.52734375 160.0625 C33.95431845 148.60371434 33.53371409 131.8795702 31.25578308 118.128088 C30.64578072 114.44856832 30.03004019 110.77004967 29.41271973 107.0917511 C27.65995034 96.64286283 25.91587318 86.19254051 24.17919922 75.7409668 C23.11305482 69.32517025 22.03839242 62.91082898 20.95927429 56.49720192 C20.55119996 54.06212311 20.14614593 51.62653609 19.74421692 49.19043541 C19.18250529 45.78673695 18.61089326 42.38483539 18.03710938 38.9831543 C17.79386177 37.48600891 17.79386177 37.48600891 17.54570007 35.95861816 C16.0649379 26.2955754 16.0649379 26.2955754 11.1875 18.125 C8.53345638 16.76006328 5.85893335 15.84468485 3 15 C3 14.34 3 13.68 3 13 C-2.94 13 -8.88 13 -15 13 C-17.43835616 6.90410959 -17.43835616 6.90410959 -16 3 C-11.34382409 -1.45373348 -6.04177762 -0.29152124 0 0 Z M61 159 C61 159.33 61 159.66 61 160 C100.93 160 140.86 160 182 160 C182 159.67 182 159.34 182 159 C142.07 159 102.14 159 61 159 Z " fill="#04AFE9" transform="translate(31,8)"/>
<path d="M0 0 C5.53603159 5.53603159 10.75759395 12.16205429 11.09375 20.2578125 C10.61144834 27.37176194 7.48908509 32.53502684 3 38 C2.59136719 38.51433594 2.18273437 39.02867187 1.76171875 39.55859375 C-1.93684052 42.5846877 -7.41165757 42.01705704 -12 42 C-16.17489702 41.44699326 -20.01445528 40.32851491 -24 39 C-25.02734375 37.171875 -25.02734375 37.171875 -26 35 C-26.84648073 33.74478246 -27.70086776 32.49486569 -28.5625 31.25 C-31.56925579 26.42313091 -32.66554675 22.37443879 -31.5546875 16.7421875 C-29.63478031 10.23215738 -26.14903587 4.47629752 -21 0 C-14.1118998 -1.53068893 -6.94318337 -1.13097179 0 0 Z " fill="#01ACEA" transform="translate(207,201)"/>
<path d="M0 0 C1.75 2.37890625 1.75 2.37890625 3 5 C3.845625 5.94875 4.69125 6.8975 5.5625 7.875 C9.19879318 12.53691433 10.27116524 16.66646684 9.875 22.5 C9.00112113 28.60674877 5.88220088 33.2738424 2 38 C1.59136719 38.51433594 1.18273437 39.02867187 0.76171875 39.55859375 C-2.93684052 42.5846877 -8.41165757 42.01705704 -13 42 C-17.17489702 41.44699326 -21.01445528 40.32851491 -25 39 C-26.02734375 37.17578125 -26.02734375 37.17578125 -27 35 C-27.84510741 33.72312431 -28.69951082 32.45235878 -29.5625 31.1875 C-32.71046012 26.14890111 -33.5302948 21.77184419 -32.3125 15.9375 C-31.2174031 12.10466084 -29.36071674 9.21915919 -27 6 C-26.62875 5.0925 -26.2575 4.185 -25.875 3.25 C-23.27342681 0.12811218 -20.98101512 -0.17849254 -17.0390625 -0.77734375 C-11.36743002 -1.19287466 -5.52935904 -1.43087445 0 0 Z " fill="#01ACEA" transform="translate(101,201)"/>
<path d="M0 0 C1.57396415 0.44740494 3.12235601 0.98376866 4.66015625 1.54296875 C3.44790091 5.98790499 2.36996595 8.73683065 -1.33984375 11.54296875 C-4.20580634 11.99185446 -6.72135485 12.23722073 -9.58984375 12.29296875 C-10.33492187 12.32261719 -11.08 12.35226563 -11.84765625 12.3828125 C-13.67781047 12.45320305 -15.50883144 12.50038707 -17.33984375 12.54296875 C-18.99307384 8.71106335 -19.82633123 6.57772049 -18.33984375 2.54296875 C-13.43732654 -2.17839309 -6.30535676 -1.23159723 0 0 Z " fill="#02A7E9" transform="translate(33.33984375,8.45703125)"/>
<path d="M0 0 C38.61 0 77.22 0 117 0 C117 0.33 117 0.66 117 1 C78.72 1 40.44 1 1 1 C0.67 2.32 0.34 3.64 0 5 C0 3.35 0 1.7 0 0 Z " fill="#29E7E9" transform="translate(78,139)"/>
<path d="M0 0 C38.94 0 77.88 0 118 0 C118 0.33 118 0.66 118 1 C79.06 1 40.12 1 0 1 C0 0.67 0 0.34 0 0 Z " fill="#060DC7" transform="translate(95,181)"/>
<path d="M0 0 C2.58464442 4.38008443 1.81479148 7.11125113 1 12 C-1.23551759 8.64672361 -1.17283528 8.09256343 -0.625 4.3125 C-0.51414063 3.50425781 -0.40328125 2.69601563 -0.2890625 1.86328125 C-0.19367187 1.24839844 -0.09828125 0.63351563 0 0 Z " fill="#10CDE1" transform="translate(64,56)"/>
<path d="M0 0 C5.28 0 10.56 0 16 0 C16 0.33 16 0.66 16 1 C10.72 1 5.44 1 0 1 C0 0.67 0 0.34 0 0 Z " fill="#2190D9" transform="translate(18,21)"/>
<path d="M0 0 C3.63 0 7.26 0 11 0 C11 0.33 11 0.66 11 1 C7.37 1 3.74 1 0 1 C0 0.67 0 0.34 0 0 Z " fill="#080BB9" transform="translate(19,6)"/>
<path d="M0 0 C0.33 0 0.66 0 1 0 C1 1.98 1 3.96 1 6 C0.67 6 0.34 6 0 6 C0 4.02 0 2.04 0 0 Z " fill="#0F8DE4" transform="translate(67,222)"/>
<path d="M0 0 C0.33 0 0.66 0 1 0 C1 1.98 1 3.96 1 6 C0.67 6 0.34 6 0 6 C0 4.02 0 2.04 0 0 Z " fill="#08A8F5" transform="translate(67,215)"/>
<path d="M0 0 C0.33 0 0.66 0 1 0 C1 1.98 1 3.96 1 6 C0.67 6 0.34 6 0 6 C0 4.02 0 2.04 0 0 Z " fill="#129EE7" transform="translate(65,148)"/>
<path d="M0 0 C0.33 0 0.66 0 1 0 C1 1.98 1 3.96 1 6 C0.67 6 0.34 6 0 6 C0 4.02 0 2.04 0 0 Z " fill="#1C8BC9" transform="translate(64,142)"/>
<path d="M0 0 C0.33 0 0.66 0 1 0 C1 1.98 1 3.96 1 6 C0.67 6 0.34 6 0 6 C0 4.02 0 2.04 0 0 Z " fill="#1699D5" transform="translate(63,136)"/>
<path d="M0 0 C0.33 0 0.66 0 1 0 C1 1.98 1 3.96 1 6 C0.67 6 0.34 6 0 6 C0 4.02 0 2.04 0 0 Z " fill="#32A1CE" transform="translate(62,130)"/>
<path d="M0 0 C0.33 0 0.66 0 1 0 C1 1.98 1 3.96 1 6 C0.67 6 0.34 6 0 6 C0 4.02 0 2.04 0 0 Z " fill="#19A0E1" transform="translate(61,124)"/>
<path d="M0 0 C0.33 0 0.66 0 1 0 C1 1.98 1 3.96 1 6 C0.67 6 0.34 6 0 6 C0 4.02 0 2.04 0 0 Z " fill="#2191C4" transform="translate(60,118)"/>
<path d="M0 0 C0.33 0 0.66 0 1 0 C1 1.98 1 3.96 1 6 C0.67 6 0.34 6 0 6 C0 4.02 0 2.04 0 0 Z " fill="#2B9EC9" transform="translate(56,95)"/>
<path d="M0 0 C0.33 0 0.66 0 1 0 C1 1.98 1 3.96 1 6 C0.67 6 0.34 6 0 6 C0 4.02 0 2.04 0 0 Z " fill="#0E90E9" transform="translate(55,89)"/>
<path d="M0 0 C0.33 0 0.66 0 1 0 C1 1.98 1 3.96 1 6 C0.67 6 0.34 6 0 6 C0 4.02 0 2.04 0 0 Z " fill="#1C99C2" transform="translate(54,83)"/>
<path d="M0 0 C0.33 0 0.66 0 1 0 C1 1.98 1 3.96 1 6 C0.67 6 0.34 6 0 6 C0 4.02 0 2.04 0 0 Z " fill="#17AFE7" transform="translate(53,77)"/>
<path d="M0 0 C0.33 0 0.66 0 1 0 C1 1.98 1 3.96 1 6 C0.67 6 0.34 6 0 6 C0 4.02 0 2.04 0 0 Z " fill="#25B6DD" transform="translate(52,71)"/>
<path d="M0 0 C0.33 0 0.66 0 1 0 C1 1.98 1 3.96 1 6 C0.67 6 0.34 6 0 6 C0 4.02 0 2.04 0 0 Z " fill="#0DD0EF" transform="translate(51,65)"/>
<path d="M0 0 C0.33 0 0.66 0 1 0 C1 1.98 1 3.96 1 6 C0.67 6 0.34 6 0 6 C0 4.02 0 2.04 0 0 Z " fill="#2E9AD7" transform="translate(63,50)"/>
<path d="M0 0 C0.33 0 0.66 0 1 0 C1 1.98 1 3.96 1 6 C0.67 6 0.34 6 0 6 C0 4.02 0 2.04 0 0 Z " fill="#159FCA" transform="translate(47,42)"/>
<path d="M0 0 C0.33 0 0.66 0 1 0 C1 1.98 1 3.96 1 6 C0.67 6 0.34 6 0 6 C0 4.02 0 2.04 0 0 Z " fill="#268DCB" transform="translate(46,36)"/>
<path d="M0 0 C1.65 0 3.3 0 5 0 C5 0.33 5 0.66 5 1 C3.35 1 1.7 1 0 1 C0 0.67 0 0.34 0 0 Z " fill="#2399CE" transform="translate(198,243)"/>
<path d="M0 0 C1.65 0 3.3 0 5 0 C5 0.33 5 0.66 5 1 C3.35 1 1.7 1 0 1 C0 0.67 0 0.34 0 0 Z " fill="#2096BF" transform="translate(190,243)"/>
<path d="M0 0 C1.65 0 3.3 0 5 0 C5 0.33 5 0.66 5 1 C3.35 1 1.7 1 0 1 C0 0.67 0 0.34 0 0 Z " fill="#1A97C0" transform="translate(83,243)"/>
<path d="M0 0 C0.33 0 0.66 0 1 0 C1 1.65 1 3.3 1 5 C0.67 5 0.34 5 0 5 C0 3.35 0 1.7 0 0 Z " fill="#3CC7DC" transform="translate(174,223)"/>
<path d="M0 0 C0.33 0 0.66 0 1 0 C1 1.65 1 3.3 1 5 C0.67 5 0.34 5 0 5 C0 3.35 0 1.7 0 0 Z " fill="#2896D2" transform="translate(219,219)"/>
<path d="M0 0 C0.33 0 0.66 0 1 0 C1 1.65 1 3.3 1 5 C0.67 5 0.34 5 0 5 C0 3.35 0 1.7 0 0 Z " fill="#1D96DC" transform="translate(112,219)"/>
<path d="M0 0 C0.33 0 0.66 0 1 0 C1 1.65 1 3.3 1 5 C0.67 5 0.34 5 0 5 C0 3.35 0 1.7 0 0 Z " fill="#33BBC9" transform="translate(174,215)"/>
<path d="M0 0 C1.65 0 3.3 0 5 0 C5 0.33 5 0.66 5 1 C3.35 1 1.7 1 0 1 C0 0.67 0 0.34 0 0 Z " fill="#173EBC" transform="translate(194,198)"/>
<path d="M0 0 C1.65 0 3.3 0 5 0 C5 0.33 5 0.66 5 1 C3.35 1 1.7 1 0 1 C0 0.67 0 0.34 0 0 Z " fill="#2969C1" transform="translate(87,198)"/>
<path d="M0 0 C1.65 0 3.3 0 5 0 C5 0.33 5 0.66 5 1 C3.35 1 1.7 1 0 1 C0 0.67 0 0.34 0 0 Z " fill="#1BC8F2" transform="translate(90,180)"/>
<path d="M0 0 C0.33 0 0.66 0 1 0 C1 1.65 1 3.3 1 5 C0.67 5 0.34 5 0 5 C0 3.35 0 1.7 0 0 Z " fill="#1AA8DF" transform="translate(79,145)"/>
<path d="M0 0 C0.33 0 0.66 0 1 0 C1 1.65 1 3.3 1 5 C0.67 5 0.34 5 0 5 C0 3.35 0 1.7 0 0 Z " fill="#0DB2F5" transform="translate(59,113)"/>
<path d="M0 0 C0.33 0 0.66 0 1 0 C1 1.65 1 3.3 1 5 C0.67 5 0.34 5 0 5 C0 3.35 0 1.7 0 0 Z " fill="#26A9E1" transform="translate(58,107)"/>
<path d="M0 0 C0.33 0 0.66 0 1 0 C1 1.65 1 3.3 1 5 C0.67 5 0.34 5 0 5 C0 3.35 0 1.7 0 0 Z " fill="#1CBFF9" transform="translate(57,101)"/>
<path d="M0 0 C0.33 0 0.66 0 1 0 C1 1.65 1 3.3 1 5 C0.67 5 0.34 5 0 5 C0 3.35 0 1.7 0 0 Z " fill="#23AADD" transform="translate(50,60)"/>
<path d="M0 0 C0.33 0 0.66 0 1 0 C1 1.65 1 3.3 1 5 C0.67 5 0.34 5 0 5 C0 3.35 0 1.7 0 0 Z " fill="#06B5F4" transform="translate(49,54)"/>
<path d="M0 0 C0.33 0 0.66 0 1 0 C1 1.65 1 3.3 1 5 C0.67 5 0.34 5 0 5 C0 3.35 0 1.7 0 0 Z " fill="#25B9E4" transform="translate(48,48)"/>
<path d="M0 0 C0.33 0 0.66 0 1 0 C1 1.65 1 3.3 1 5 C0.67 5 0.34 5 0 5 C0 3.35 0 1.7 0 0 Z " fill="#11C1F7" transform="translate(62,45)"/>
<path d="M0 0 C0.33 0 0.66 0 1 0 C1 1.65 1 3.3 1 5 C0.67 5 0.34 5 0 5 C0 3.35 0 1.7 0 0 Z " fill="#27ABE0" transform="translate(61,39)"/>
<path d="M0 0 C0.33 0 0.66 0 1 0 C1 1.65 1 3.3 1 5 C0.67 5 0.34 5 0 5 C0 3.35 0 1.7 0 0 Z " fill="#04B3F1" transform="translate(60,33)"/>
<path d="M0 0 C1.65 0 3.3 0 5 0 C5 0.33 5 0.66 5 1 C3.35 1 1.7 1 0 1 C0 0.67 0 0.34 0 0 Z " fill="#13ADE2" transform="translate(31,7)"/>
<path d="M0 0 C4 1 4 1 4 1 Z " fill="#2FADCD" transform="translate(92,243)"/>
<path d="M0 0 C1 4 1 4 1 4 Z " fill="#20BCE8" transform="translate(218,224)"/>
<path d="M0 0 C1 4 1 4 1 4 Z " fill="#26A8CD" transform="translate(111,224)"/>
<path d="M0 0 C1 4 1 4 1 4 Z " fill="#1ABFF1" transform="translate(218,215)"/>
<path d="M0 0 C4 1 4 1 4 1 Z " fill="#14ACE4" transform="translate(199,199)"/>
<path d="M0 0 C4 1 4 1 4 1 Z " fill="#29AEEA" transform="translate(190,199)"/>
<path d="M0 0 C4 1 4 1 4 1 Z " fill="#0FBBE4" transform="translate(92,199)"/>
<path d="M0 0 C4 1 4 1 4 1 Z " fill="#19BAFB" transform="translate(83,199)"/>
<path d="M0 0 C1 4 1 4 1 4 Z " fill="#29CADC" transform="translate(66,154)"/>
<path d="M0 0 C1 4 1 4 1 4 Z " fill="#0DAFF6" transform="translate(80,151)"/>
<path d="M0 0 C1 4 1 4 1 4 Z " fill="#1AA2E3" transform="translate(45,32)"/>
<path d="M0 0 C1 4 1 4 1 4 Z " fill="#22AFD1" transform="translate(59,29)"/>
<path d="" fill="#1466AE" transform="translate(0,0)"/>
<path d="" fill="#1590EC" transform="translate(0,0)"/>
<path d="" fill="#020C79" transform="translate(0,0)"/>
<path d="" fill="#1A82CF" transform="translate(0,0)"/>
<path d="" fill="#198CCA" transform="translate(0,0)"/>
<path d="M0 0 C0.66 0 1.32 0 2 0 C1.67 0.66 1.34 1.32 1 2 C0.67 1.34 0.34 0.68 0 0 Z " fill="#04778D" transform="translate(104,205)"/>
<path d="M0 0 C3 1 3 1 3 1 Z " fill="#269AC1" transform="translate(96,200)"/>
<path d="M0 0 C3 1 3 1 3 1 Z " fill="#3DCEF4" transform="translate(87,179)"/>
<path d="" fill="#037797" transform="translate(0,0)"/>
<path d="" fill="#2688D2" transform="translate(0,0)"/>
<path d="M0 0 C3 1 3 1 3 1 Z " fill="#0ED5B5" transform="translate(195,138)"/>
<path d="" fill="#0FF1E0" transform="translate(0,0)"/>
<path d="" fill="#2AE7CC" transform="translate(0,0)"/>
<path d="" fill="#14EDB2" transform="translate(0,0)"/>
<path d="" fill="#1EAE89" transform="translate(0,0)"/>
<path d="" fill="#0AC4B8" transform="translate(0,0)"/>
<path d="" fill="#25EEE9" transform="translate(0,0)"/>
<path d="" fill="#00F6CB" transform="translate(0,0)"/>
<path d="" fill="#31F4DC" transform="translate(0,0)"/>
<path d="" fill="#0BE89D" transform="translate(0,0)"/>
<path d="" fill="#29EAB8" transform="translate(0,0)"/>
<path d="" fill="#1BE2C9" transform="translate(0,0)"/>
<path d="" fill="#24DDC3" transform="translate(0,0)"/>
<path d="" fill="#11F9DA" transform="translate(0,0)"/>
<path d="" fill="#2AD7D5" transform="translate(0,0)"/>
<path d="" fill="#0CDDB0" transform="translate(0,0)"/>
<path d="" fill="#1ED6C1" transform="translate(0,0)"/>
<path d="" fill="#01FAEF" transform="translate(0,0)"/>
<path d="" fill="#18EDDB" transform="translate(0,0)"/>
<path d="" fill="#03FEE9" transform="translate(0,0)"/>
<path d="" fill="#3C9DD9" transform="translate(0,0)"/>
<path d="M0 0 C3 1 3 1 3 1 Z " fill="#2398CB" transform="translate(36,8)"/>
<path d="M0 0 C2 1 2 1 2 1 Z " fill="#01096F" transform="translate(89,244)"/>
<path d="M0 0 C2 1 2 1 2 1 Z " fill="#1FC0FF" transform="translate(203,242)"/>
<path d="M0 0 C2 1 2 1 2 1 Z " fill="#1BA3D1" transform="translate(188,242)"/>
<path d="M0 0 C2 1 2 1 2 1 Z " fill="#1ACCF0" transform="translate(96,242)"/>
<path d="M0 0 C2 1 2 1 2 1 Z " fill="#19C9FD" transform="translate(81,242)"/>
<path d="M0 0 C2 1 2 1 2 1 Z " fill="#2BB4E1" transform="translate(186,241)"/>
<path d="M0 0 C2 1 2 1 2 1 Z " fill="#23BDD9" transform="translate(79,241)"/>
<path d="" fill="#29A6E4" transform="translate(0,0)"/>
<path d="" fill="#17F3FA" transform="translate(0,0)"/>
<path d="" fill="#1AAFE0" transform="translate(0,0)"/>
<path d="" fill="#1264BB" transform="translate(0,0)"/>
<path d="" fill="#2EEBFF" transform="translate(0,0)"/>
<path d="" fill="#0A80E7" transform="translate(0,0)"/>
<path d="" fill="#21D0F7" transform="translate(0,0)"/>
<path d="" fill="#1F99E9" transform="translate(0,0)"/>
<path d="" fill="#0CCCDD" transform="translate(0,0)"/>
<path d="" fill="#059BD6" transform="translate(0,0)"/>
<path d="" fill="#20C6FB" transform="translate(0,0)"/>
<path d="" fill="#23E8FF" transform="translate(0,0)"/>
<path d="" fill="#19AEDE" transform="translate(0,0)"/>
<path d="" fill="#0FBBE8" transform="translate(0,0)"/>
<path d="" fill="#38E0FF" transform="translate(0,0)"/>
<path d="M0 0 C2 1 2 1 2 1 Z " fill="#08A0C9" transform="translate(203,200)"/>
<path d="M0 0 C2 1 2 1 2 1 Z " fill="#198FDE" transform="translate(188,200)"/>
<path d="M0 0 C2 1 2 1 2 1 Z " fill="#1BBCE7" transform="translate(81,200)"/>
<path d="M0 0 C2 1 2 1 2 1 Z " fill="#31E5FF" transform="translate(213,180)"/>
<path d="M0 0 C2 1 2 1 2 1 Z " fill="#00A3E6" transform="translate(85,178)"/>
<path d="" fill="#0CC1E9" transform="translate(0,0)"/>
<path d="" fill="#00387C" transform="translate(0,0)"/>
<path d="" fill="#1ABFFB" transform="translate(0,0)"/>
<path d="" fill="#27BBE7" transform="translate(0,0)"/>
<path d="" fill="#2A8181" transform="translate(0,0)"/>
<path d="" fill="#4AB4F0" transform="translate(0,0)"/>
<path d="M0 0 C2 1 2 1 2 1 Z " fill="#20CDC8" transform="translate(198,137)"/>
<path d="" fill="#03F9F6" transform="translate(0,0)"/>
<path d="" fill="#12F1BC" transform="translate(0,0)"/>
<path d="" fill="#30EBC3" transform="translate(0,0)"/>
<path d="" fill="#30C7DC" transform="translate(0,0)"/>
<path d="" fill="#20C0F7" transform="translate(0,0)"/>
<path d="" fill="#0181E4" transform="translate(0,0)"/>
<path d="" fill="#1DACE9" transform="translate(0,0)"/>
<path d="" fill="#008FEC" transform="translate(0,0)"/>
<path d="" fill="#10B3E4" transform="translate(0,0)"/>
<path d="" fill="#0D63BF" transform="translate(0,0)"/>
<path d="" fill="#0DD2FD" transform="translate(0,0)"/>
<path d="M0 0 C2 1 2 1 2 1 Z " fill="#1CC7FF" transform="translate(17,7)"/>
<path d="" fill="#0014B1" transform="translate(0,0)"/>
<path d="" fill="#03AFED" transform="translate(0,0)"/>
<path d="" fill="#0AB1D6" transform="translate(0,0)"/>
<path d="" fill="#0081B6" transform="translate(0,0)"/>
<path d="" fill="#03A6F1" transform="translate(0,0)"/>
<path d="" fill="#0FA5EB" transform="translate(0,0)"/>
<path d="" fill="#24B2CB" transform="translate(0,0)"/>
<path d="" fill="#1EA4DF" transform="translate(0,0)"/>
<path d="" fill="#09A7E6" transform="translate(0,0)"/>
<path d="" fill="#01AEF5" transform="translate(0,0)"/>
<path d="" fill="#0584A2" transform="translate(0,0)"/>
<path d="" fill="#1CA4DF" transform="translate(0,0)"/>
<path d="" fill="#00ABF1" transform="translate(0,0)"/>
<path d="" fill="#06A6EB" transform="translate(0,0)"/>
<path d="" fill="#0CADDD" transform="translate(0,0)"/>
<path d="" fill="#16A6E7" transform="translate(0,0)"/>
<path d="" fill="#04B0E1" transform="translate(0,0)"/>
<path d="" fill="#00A5F2" transform="translate(0,0)"/>
<path d="" fill="#2BDBFF" transform="translate(0,0)"/>
<path d="" fill="#16A6E7" transform="translate(0,0)"/>
<path d="" fill="#23EFFF" transform="translate(0,0)"/>
<path d="" fill="#329FCE" transform="translate(0,0)"/>
<path d="" fill="#2798F1" transform="translate(0,0)"/>
<path d="" fill="#02AAF3" transform="translate(0,0)"/>
<path d="" fill="#2BB0F0" transform="translate(0,0)"/>
<path d="" fill="#11A2EA" transform="translate(0,0)"/>
<path d="" fill="#0BF1FF" transform="translate(0,0)"/>
<path d="" fill="#16A0DD" transform="translate(0,0)"/>
<path d="" fill="#09A7D9" transform="translate(0,0)"/>
<path d="" fill="#00B5E2" transform="translate(0,0)"/>
<path d="" fill="#0EA5DB" transform="translate(0,0)"/>
<path d="" fill="#21A2EC" transform="translate(0,0)"/>
<path d="" fill="#07AEEE" transform="translate(0,0)"/>
<path d="" fill="#02ABED" transform="translate(0,0)"/>
<path d="" fill="#17A6E5" transform="translate(0,0)"/>
<path d="" fill="#1EA2E7" transform="translate(0,0)"/>
<path d="" fill="#13A7EB" transform="translate(0,0)"/>
<path d="" fill="#19A4EB" transform="translate(0,0)"/>
<path d="" fill="#07A1CD" transform="translate(0,0)"/>
<path d="" fill="#0CABF3" transform="translate(0,0)"/>
<path d="" fill="#19A6EC" transform="translate(0,0)"/>
<path d="" fill="#42DDFF" transform="translate(0,0)"/>
<path d="" fill="#0DB2E1" transform="translate(0,0)"/>
<path d="" fill="#0091C0" transform="translate(0,0)"/>
<path d="" fill="#12AAE6" transform="translate(0,0)"/>
<path d="" fill="#1EA2E7" transform="translate(0,0)"/>
<path d="" fill="#02B3EE" transform="translate(0,0)"/>
<path d="" fill="#00A0C8" transform="translate(0,0)"/>
<path d="" fill="#19F0FF" transform="translate(0,0)"/>
<path d="" fill="#009BC8" transform="translate(0,0)"/>
<path d="" fill="#4FDBE3" transform="translate(0,0)"/>
<path d="" fill="#1597BD" transform="translate(0,0)"/>
<path d="" fill="#0091DB" transform="translate(0,0)"/>
<path d="" fill="#25A6D3" transform="translate(0,0)"/>
<path d="" fill="#008BEB" transform="translate(0,0)"/>
<path d="" fill="#0389C4" transform="translate(0,0)"/>
<path d="" fill="#0087D3" transform="translate(0,0)"/>
<path d="" fill="#00B4BC" transform="translate(0,0)"/>
<path d="" fill="#1DAEDF" transform="translate(0,0)"/>
<path d="" fill="#00A2D7" transform="translate(0,0)"/>
<path d="" fill="#009AD4" transform="translate(0,0)"/>
<path d="" fill="#03F8C5" transform="translate(0,0)"/>
<path d="" fill="#13F1BF" transform="translate(0,0)"/>
<path d="" fill="#10F6C1" transform="translate(0,0)"/>
<path d="" fill="#14EED4" transform="translate(0,0)"/>
<path d="" fill="#1FE7E6" transform="translate(0,0)"/>
<path d="" fill="#29ECE3" transform="translate(0,0)"/>
<path d="" fill="#0087D2" transform="translate(0,0)"/>
<path d="" fill="#00AFF4" transform="translate(0,0)"/>
<path d="" fill="#0094BC" transform="translate(0,0)"/>
<path d="" fill="#07A0F2" transform="translate(0,0)"/>
<path d="" fill="#24A5D2" transform="translate(0,0)"/>
<path d="" fill="#0A85B2" transform="translate(0,0)"/>
<path d="" fill="#65C0FF" transform="translate(0,0)"/>
<path d="" fill="#11B7C6" transform="translate(0,0)"/>
<path d="" fill="#3EE8F5" transform="translate(0,0)"/>
<path d="" fill="#12AFCC" transform="translate(0,0)"/>
<path d="" fill="#11ACD3" transform="translate(0,0)"/>
<path d="" fill="#0085D2" transform="translate(0,0)"/>
<path d="" fill="#0086F1" transform="translate(0,0)"/>
<path d="" fill="#0089C6" transform="translate(0,0)"/>
</svg>
