<?xml version="1.0" standalone="no"?>
<!DOCTYPE svg PUBLIC "-//W3C//DTD SVG 20010904//EN"
 "http://www.w3.org/TR/2001/REC-SVG-20010904/DTD/svg10.dtd">
<svg version="1.0" xmlns="http://www.w3.org/2000/svg"
 width="933.000000pt" height="400.000000pt" viewBox="0 0 933.000000 400.000000"
 preserveAspectRatio="xMidYMid meet">

<g transform="translate(0.000000,400.000000) scale(0.100000,-0.100000)"
fill="white" stroke="none">
<path d="M2710 3899 c-43 -19 -130 -94 -130 -111 0 -5 19 2 43 14 28 15 61 22
99 22 52 1 61 -2 90 -32 l33 -32 0 -353 0 -352 -1175 0 -1175 0 -3 -67 -3 -68
91 0 90 0 0 -81 c0 -76 -2 -84 -30 -115 -61 -69 -60 -62 -60 -901 l0 -764 -30
-17 c-30 -17 -30 -19 -28 -82 l3 -65 35 3 c52 5 122 43 147 80 29 44 35 144
31 515 -2 163 -2 297 0 297 1 0 19 -11 40 -25 60 -40 121 -57 202 -58 102 -1
166 22 236 85 98 91 99 91 102 406 3 236 1 280 -14 325 -48 146 -161 228 -314
229 -96 1 -163 -21 -220 -69 l-42 -36 21 40 c11 22 27 43 36 46 12 5 15 25 15
97 l0 90 1025 0 1025 0 0 -600 0 -600 75 0 75 0 0 223 0 223 38 19 c114 55
169 52 246 -16 55 -49 121 -176 187 -364 76 -219 144 -316 255 -371 68 -33
156 -42 207 -21 42 18 110 67 103 75 -3 2 -29 -5 -57 -18 -60 -25 -101 -23
-181 12 -87 37 -136 113 -187 293 -87 300 -181 458 -311 523 l-59 30 42 28
c100 65 263 247 316 352 l21 42 -82 0 -83 -1 -42 -62 c-104 -154 -279 -307
-390 -341 l-23 -7 0 290 0 291 680 0 680 0 0 -40 0 -40 75 0 75 0 0 40 0 40
78 0 79 0 6 -187 c4 -104 7 -330 7 -503 0 -344 3 -358 62 -421 155 -165 440
-132 537 63 29 57 31 68 31 175 l0 113 -75 0 -75 0 0 -109 c0 -96 -3 -112 -23
-142 -30 -45 -80 -69 -145 -69 -66 0 -118 23 -143 64 -18 29 -19 56 -19 369
l0 338 233 -2 232 -1 3 66 3 66 -236 0 -235 0 0 90 0 90 295 0 295 0 0 -40 0
-40 75 0 75 0 0 40 c0 40 0 40 38 40 20 0 54 3 75 6 l37 7 0 -607 0 -606 79 0
80 0 -6 215 c-7 246 -8 242 79 271 176 58 266 -37 398 -421 55 -159 78 -211
116 -262 13 -17 24 -34 24 -36 0 -2 -33 -2 -74 1 -84 5 -191 -8 -351 -45 -266
-60 -373 -75 -580 -80 -220 -6 -345 7 -528 52 -152 39 -199 68 -284 180 -40
52 -83 138 -84 167 0 13 -10 -6 -22 -42 -44 -130 -121 -228 -211 -265 -94 -40
-324 -76 -561 -90 -155 -9 -302 8 -590 67 -234 48 -259 52 -395 52 -112 0
-168 -6 -244 -22 -131 -29 -199 -28 -282 3 -99 37 -109 30 -19 -14 l80 -38
-37 -18 c-20 -10 -35 -22 -32 -27 3 -5 0 -17 -6 -26 -7 -9 -1 -5 12 9 37 40
61 49 122 49 30 0 66 4 80 10 31 12 34 0 5 -26 -12 -10 -33 -39 -47 -64 -14
-25 -30 -52 -36 -61 -6 -8 5 2 24 24 117 133 171 165 302 174 99 7 201 -10
404 -68 168 -47 364 -89 419 -89 31 0 37 -3 27 -12 -15 -15 -210 -17 -457 -4
-102 5 -169 5 -185 -2 -18 -7 -2 -8 60 -5 60 4 124 -1 218 -16 73 -11 150 -21
172 -21 51 0 52 -16 3 -25 -21 -3 -81 -27 -133 -52 -66 -32 -112 -47 -150 -50
-30 -3 -86 -16 -125 -29 -38 -14 -83 -29 -100 -34 -29 -9 -28 -9 8 -5 27 3 36
1 31 -8 -4 -7 1 -4 12 5 43 38 223 74 239 49 3 -7 1 -10 -6 -9 -7 2 -27 -19
-44 -46 -79 -122 -94 -148 -78 -135 9 8 36 44 60 81 96 148 225 211 523 257
69 11 139 23 155 27 26 6 21 -1 -41 -59 -112 -105 -156 -138 -209 -163 -27
-13 -43 -24 -35 -24 27 0 114 46 215 115 146 100 194 119 405 160 173 35 324
79 356 106 25 21 27 1 5 -53 -29 -71 -83 -143 -134 -178 -23 -16 -75 -53 -115
-82 -150 -108 -173 -114 -442 -128 -169 -8 -189 -13 -300 -80 -36 -21 -105
-56 -155 -76 -49 -21 -106 -48 -125 -60 -19 -12 -57 -26 -85 -29 -48 -7 -135
-38 -135 -49 0 -3 19 3 43 13 56 25 157 36 157 18 0 -16 -24 -52 -69 -102
l-36 -40 43 40 c24 22 54 60 67 85 25 50 51 66 187 118 49 19 75 25 71 17 -8
-23 21 -10 57 25 19 18 60 45 90 59 47 21 72 26 165 28 l110 3 -50 -24 c-27
-13 -59 -31 -70 -41 -19 -16 -19 -16 8 0 47 28 103 44 195 56 48 6 97 15 109
20 l22 8 -25 -46 c-13 -25 -24 -51 -24 -58 0 -7 -21 -20 -47 -30 -101 -38
-209 -99 -245 -138 -25 -26 -51 -43 -75 -48 l-38 -8 36 2 c36 3 36 3 26 -28
-5 -16 -19 -43 -31 -60 -17 -25 -17 -28 -2 -16 10 8 30 40 46 71 16 31 46 72
68 92 38 34 107 66 119 54 3 -3 1 -24 -5 -48 -16 -62 -7 -58 15 8 18 53 22 58
67 76 27 10 51 17 53 15 2 -3 0 -48 -6 -101 -8 -79 -17 -112 -50 -185 -23 -48
-41 -92 -41 -98 0 -5 -9 -18 -21 -29 -12 -10 -28 -32 -36 -49 -13 -25 -9 -23
22 13 20 23 40 40 44 37 7 -4 24 -76 35 -145 2 -19 4 -17 5 9 0 18 -6 64 -15
101 -17 68 -17 69 6 112 13 24 30 55 37 71 l15 27 25 -37 c14 -21 34 -48 45
-59 11 -12 26 -41 34 -65 l14 -44 -4 39 c-3 22 -20 63 -37 90 -20 31 -34 69
-37 97 -6 62 15 209 39 273 26 70 121 168 218 225 40 24 92 60 114 80 l40 36
-6 -30 c-3 -16 -16 -88 -27 -160 -34 -213 -33 -210 -119 -294 l-76 -74 55 38
c30 21 66 48 79 59 l24 21 -6 -26 c-22 -92 -29 -183 -18 -235 12 -52 12 -55
-18 -97 -16 -24 -33 -57 -36 -73 -5 -20 1 -14 19 21 15 28 33 59 42 70 15 20
15 20 34 -5 11 -14 26 -38 34 -55 9 -16 16 -24 16 -16 0 8 -14 36 -30 63 -33
53 -50 120 -43 165 10 62 25 123 32 123 4 0 12 -15 19 -32 7 -18 33 -55 58
-83 l46 -50 -41 59 c-42 61 -71 137 -71 187 0 37 41 193 103 391 l52 166 37
-116 c145 -448 149 -489 50 -634 -58 -86 -54 -88 11 -7 20 25 45 65 56 89 13
28 22 39 25 30 38 -113 36 -192 -9 -279 -41 -79 -47 -108 -7 -37 15 27 32 51
37 53 6 1 23 -20 39 -47 17 -27 32 -48 34 -45 3 2 -10 27 -28 55 -32 50 -32
50 -20 113 10 52 10 76 -4 148 -21 109 -21 107 12 77 32 -30 142 -110 142
-104 0 2 -29 28 -65 56 -83 66 -110 112 -131 225 -9 50 -24 131 -34 180 -10
50 -16 92 -14 94 2 3 17 -7 32 -21 15 -14 72 -54 127 -90 181 -116 236 -208
252 -420 l6 -88 -37 -60 c-21 -33 -39 -77 -42 -98 l-4 -37 15 38 c8 21 30 60
50 87 19 26 35 53 35 60 0 28 27 -1 58 -61 l34 -65 -16 -77 c-21 -103 -19
-130 3 -39 10 40 21 76 25 79 8 8 52 -43 78 -91 9 -17 17 -26 18 -19 0 6 -21
42 -46 80 -84 124 -121 216 -135 331 -7 56 -10 105 -7 108 10 10 107 -38 112
-55 2 -9 7 -31 11 -48 4 -18 11 -35 16 -38 5 -4 5 5 -1 20 -13 35 -13 75 1 75
6 0 37 -14 69 -31 61 -32 96 -73 120 -141 8 -21 19 -39 26 -42 8 -3 5 8 -6 27
-27 43 -26 67 3 67 28 -1 93 -24 116 -42 9 -7 7 -3 -6 9 -24 23 -80 43 -123
43 -17 0 -32 11 -47 34 -21 33 -115 88 -236 136 -53 22 -60 29 -87 83 l-29 58
27 -5 c15 -3 72 -12 127 -20 75 -11 118 -24 170 -50 39 -20 61 -29 50 -20 -11
9 -47 29 -80 45 l-60 29 96 0 c116 0 171 -17 234 -72 53 -47 80 -94 90 -158
16 -105 43 -154 117 -210 l43 -32 -47 43 c-66 62 -77 86 -93 188 -7 50 -20
104 -28 121 -14 26 -7 44 7 21 3 -5 18 -12 33 -16 14 -3 62 -22 105 -42 69
-32 81 -41 107 -87 16 -28 44 -64 61 -81 25 -23 22 -16 -14 28 -42 53 -57 87
-38 87 45 -1 146 -26 180 -46 23 -14 42 -23 42 -20 0 15 -95 57 -158 70 -40 8
-85 24 -100 34 -15 11 -67 36 -116 56 -49 20 -119 54 -155 76 -105 63 -138 71
-326 81 -230 12 -295 27 -365 84 -30 25 -85 64 -123 87 -86 52 -146 118 -181
202 -16 37 -26 69 -24 72 3 2 25 -7 49 -20 61 -34 189 -70 380 -106 182 -34
227 -51 355 -137 49 -33 112 -72 139 -85 53 -27 148 -58 174 -57 9 0 -11 8
-44 18 -83 23 -163 71 -244 146 -38 35 -81 71 -96 81 -14 9 -24 19 -21 21 2 2
30 0 63 -6 32 -5 108 -17 170 -26 239 -34 382 -111 482 -259 27 -39 57 -78 67
-86 15 -12 15 -10 -2 10 -11 14 -38 54 -59 90 -21 36 -48 76 -59 89 l-21 24
60 -7 c88 -10 157 -34 182 -64 20 -23 22 -24 17 -5 -5 20 -4 20 48 11 29 -5
69 -18 88 -29 l35 -19 -23 20 c-13 11 -43 24 -65 30 -23 5 -76 21 -117 35 -41
14 -113 32 -160 39 -64 11 -107 26 -173 60 -48 25 -97 46 -107 46 -11 0 -20 3
-20 8 0 4 78 18 173 31 223 31 288 27 391 -22 80 -38 98 -42 43 -9 -111 65
-197 75 -446 52 -133 -13 -298 -8 -328 9 -10 5 9 11 58 15 64 7 243 49 529
126 41 11 123 25 183 30 l107 9 44 -30 c25 -16 77 -38 117 -48 66 -17 74 -22
91 -55 10 -20 21 -36 23 -36 3 0 -1 13 -10 30 -8 16 -15 33 -15 38 0 5 24 14
52 20 66 13 95 0 138 -63 17 -25 33 -45 36 -45 3 0 -9 20 -26 45 -27 39 -29
45 -13 46 10 0 2 5 -17 11 -19 5 -39 13 -43 17 -7 7 70 59 123 83 28 13 -13 9
-62 -5 -44 -14 -45 -14 -60 13 -26 45 -128 48 -145 4 -8 -22 14 -34 62 -34 34
-1 37 -2 21 -12 -25 -14 -124 -5 -166 17 -74 38 -114 108 -158 275 -81 309
-188 496 -321 563 l-50 24 46 33 c66 48 164 142 211 203 44 56 112 166 112
179 0 4 -35 8 -79 8 l-79 0 -43 -67 c-66 -102 -219 -250 -304 -294 -38 -20
-80 -40 -92 -44 l-23 -6 0 290 0 291 1080 0 1080 0 0 -483 c0 -560 -1 -556 80
-636 66 -66 138 -94 245 -94 100 0 163 25 228 91 64 65 79 106 85 238 l5 111
-33 6 c-18 4 -52 7 -76 7 l-44 0 0 -98 c0 -82 -4 -105 -22 -142 -32 -61 -75
-83 -155 -77 -96 7 -144 51 -159 146 -4 22 -3 169 1 326 l7 285 229 0 229 0 0
70 0 70 -230 0 -230 0 0 90 0 90 105 0 105 0 0 70 c0 38 -3 69 -7 69 -5 -1
-52 -1 -105 0 l-98 1 0 150 c0 83 -3 150 -7 150 -13 0 -97 -27 -125 -41 l-28
-12 0 -124 0 -123 -1081 0 -1081 0 4 328 c3 288 5 331 21 359 39 73 121 75
312 9 11 -4 -2 13 -30 39 -100 92 -238 129 -321 87 -21 -11 -53 -35 -71 -54
-62 -64 -63 -74 -63 -437 l0 -329 -62 -4 c-35 -2 -235 -1 -445 1 l-383 4 0
158 c0 88 -3 159 -7 159 -3 0 -37 -14 -73 -31 l-67 -31 -7 -60 c-3 -34 -6 -93
-6 -132 l0 -71 -818 1 c-449 1 -825 2 -834 3 -17 1 -18 24 -18 345 0 375 -3
401 -58 460 -55 58 -149 73 -232 35z m-1653 -1294 c48 -20 70 -41 97 -90 20
-38 21 -54 21 -280 0 -229 -1 -242 -22 -286 -46 -92 -150 -130 -268 -98 -49
14 -115 79 -134 134 -19 55 -28 423 -11 477 14 50 74 116 125 139 50 23 142
25 192 4z"/>
<path d="M8625 3431 c-202 -52 -262 -293 -108 -432 53 -48 100 -63 179 -56
135 10 224 108 224 245 0 99 -59 192 -145 228 -41 17 -114 24 -150 15z m141
-60 c63 -29 114 -110 114 -180 0 -110 -97 -210 -203 -211 -168 -1 -266 210
-155 336 64 72 159 94 244 55z"/>
<path d="M8607 3323 l-28 -4 3 -132 c3 -124 4 -132 23 -132 17 0 20 8 23 53 3
48 5 52 28 52 19 0 30 -11 52 -50 24 -46 62 -73 78 -57 9 8 -4 41 -31 80 l-23
35 24 23 c30 28 33 88 5 113 -20 18 -102 28 -154 19z m127 -59 c4 -9 -1 -27
-9 -40 -12 -19 -24 -24 -55 -24 -40 0 -40 0 -40 40 l0 40 49 0 c36 0 51 -4 55
-16z"/>
<path d="M2241 2745 c-65 -18 -135 -66 -178 -123 -33 -44 -53 -114 -53 -187
l0 -45 70 0 70 0 0 38 c0 102 49 170 138 192 92 22 175 -5 224 -71 28 -37 35
-135 14 -180 -24 -51 -60 -67 -200 -88 -174 -26 -255 -70 -314 -169 -23 -41
-27 -58 -27 -127 0 -94 20 -140 86 -199 68 -62 120 -80 224 -80 101 0 154 17
218 73 l36 32 43 -44 c33 -34 53 -46 85 -52 52 -8 60 -4 72 42 9 32 8 40 -9
55 -52 49 -54 62 -55 388 0 339 -3 355 -64 437 -75 99 -242 147 -380 108z
m297 -651 c-6 -128 -31 -178 -111 -224 -44 -25 -63 -30 -122 -30 -114 0 -175
54 -175 155 0 95 56 145 186 165 89 14 201 47 211 63 12 20 16 -19 11 -129z"/>
<path d="M6823 2750 c-157 -33 -249 -134 -260 -286 l-6 -74 77 0 76 0 0 58 c0
73 24 120 77 150 111 62 259 19 294 -85 15 -47 6 -128 -18 -161 -29 -39 -65
-53 -172 -68 -157 -20 -207 -39 -274 -103 -65 -61 -82 -103 -82 -202 0 -78 3
-90 30 -135 57 -92 182 -151 299 -142 71 6 137 35 195 85 23 19 43 34 45 32 2
-2 11 -19 20 -36 21 -42 51 -61 108 -69 l47 -7 11 43 c11 39 10 44 -14 69 -13
14 -30 39 -35 54 -7 18 -11 141 -11 328 0 181 -4 317 -11 343 -36 145 -224
242 -396 206z m258 -647 c-6 -108 -10 -126 -34 -162 -36 -54 -92 -90 -156
-100 -130 -21 -214 38 -215 150 0 98 61 148 211 172 51 9 116 26 145 40 29 13
54 23 55 23 1 -1 -1 -56 -6 -123z"/>
<path d="M1450 2235 l0 -515 75 0 75 0 0 342 c0 392 0 390 91 472 61 55 121
76 216 76 l73 0 0 71 0 72 -82 -6 c-106 -6 -183 -36 -248 -93 l-50 -46 0 71 0
71 -75 0 -75 0 0 -515z"/>
<path d="M3730 2235 l0 -515 75 0 74 0 3 348 c3 396 2 390 93 470 59 52 129
75 223 75 l72 0 0 69 0 68 -54 0 c-117 0 -228 -38 -293 -100 l-33 -31 0 65 0
66 -80 0 -80 0 0 -515z"/>
<path d="M4360 2235 l0 -515 75 0 75 0 0 515 0 515 -75 0 -75 0 0 -515z"/>
<path d="M5410 2235 l0 -515 80 0 79 0 -2 513 -2 512 -77 3 -78 3 0 -516z"/>
<path d="M7399 2553 c0 -109 -3 -341 -5 -515 l-5 -318 81 0 80 0 0 339 c0 380
0 379 72 458 62 66 107 86 211 91 l87 4 0 69 0 69 -42 0 c-117 0 -211 -32
-286 -95 l-41 -36 -3 63 -3 63 -72 3 -73 3 -1 -198z"/>
<path d="M2223 1363 c9 -2 23 -2 30 0 6 3 -1 5 -18 5 -16 0 -22 -2 -12 -5z"/>
<path d="M6975 1364 c11 -3 33 -10 50 -15 21 -7 26 -6 19 1 -6 6 -28 13 -50
15 -21 2 -30 2 -19 -1z"/>
<path d="M2178 1353 c7 -3 16 -2 19 1 4 3 -2 6 -13 5 -11 0 -14 -3 -6 -6z"/>
<path d="M2239 1303 c-13 -16 -12 -17 4 -4 9 7 17 15 17 17 0 8 -8 3 -21 -13z"/>
<path d="M2840 1245 c-14 -8 -20 -14 -15 -14 6 0 21 6 35 14 14 8 21 14 15 14
-5 0 -21 -6 -35 -14z"/>
<path d="M2828 1033 c7 -3 16 -2 19 1 4 3 -2 6 -13 5 -11 0 -14 -3 -6 -6z"/>
<path d="M2785 1020 c-3 -6 1 -7 9 -4 18 7 21 14 7 14 -6 0 -13 -4 -16 -10z"/>
<path d="M3458 1013 c7 -3 16 -2 19 1 4 3 -2 6 -13 5 -11 0 -14 -3 -6 -6z"/>
<path d="M3418 1003 c7 -3 16 -2 19 1 4 3 -2 6 -13 5 -11 0 -14 -3 -6 -6z"/>
<path d="M2890 980 c-6 -11 -8 -20 -6 -20 3 0 10 9 16 20 6 11 8 20 6 20 -3 0
-10 -9 -16 -20z"/>
<path d="M6300 980 c6 -11 13 -20 16 -20 2 0 0 9 -6 20 -6 11 -13 20 -16 20
-2 0 0 -9 6 -20z"/>
<path d="M3431 766 c-5 -17 -12 -61 -16 -99 -5 -53 -14 -78 -41 -120 l-34 -52
35 39 c35 39 40 52 68 171 8 33 17 67 21 76 5 10 2 16 -8 16 -9 0 -20 -14 -25
-31z"/>
<path d="M2959 643 c-13 -16 -12 -17 4 -4 16 13 21 21 13 21 -2 0 -10 -8 -17
-17z"/>
<path d="M4214 608 l-19 -23 23 19 c12 11 22 21 22 23 0 8 -8 2 -26 -19z"/>
<path d="M3566 595 c-11 -8 -16 -15 -10 -15 5 0 18 7 28 15 11 8 16 15 10 15
-5 0 -18 -7 -28 -15z"/>
<path d="M3299 473 c-13 -16 -12 -17 4 -4 16 13 21 21 13 21 -2 0 -10 -8 -17
-17z"/>
<path d="M4471 294 c0 -11 3 -14 6 -6 3 7 2 16 -1 19 -3 4 -6 -2 -5 -13z"/>
<path d="M4722 290 c0 -14 2 -19 5 -12 2 6 2 18 0 25 -3 6 -5 1 -5 -13z"/>
<path d="M4871 294 c0 -11 3 -14 6 -6 3 7 2 16 -1 19 -3 4 -6 -2 -5 -13z"/>
</g>
</svg>
