
<svg version="1.0" xmlns="http://www.w3.org/2000/svg"
 width="933.000000pt" height="400.000000pt" viewBox="0 0 933.000000 400.000000"
 preserveAspectRatio="xMidYMid meet">

<g transform="translate(0.000000,400.000000) scale(0.100000,-0.100000)"
fill="white" stroke="none">
<path d="M0 0 C0.69109863 0.09945923 1.38219727 0.19891846 2.09423828 0.3013916 C33.7822673 4.86670558 64.59840294 11.85458739 95 22 C96.07588379 22.35819824 97.15176758 22.71639648 98.26025391 23.08544922 C152.92510549 41.50943514 204.94582738 70.71318522 249 108 C250.03073806 108.85738666 251.0620156 109.71412505 252.09375 110.5703125 C264.19210958 120.65327526 275.59247455 131.41965342 286.70458984 142.57421875 C288.39175958 144.26681347 290.08430196 145.95390597 291.77734375 147.640625 C297.39848831 153.25807481 302.87121264 158.92287083 308 165 C308.845625 165.96421875 309.69125 166.9284375 310.5625 167.921875 C372.99125362 240.35523658 410.44822404 329.83464222 424 424 C424.18079102 425.22589844 424.36158203 426.45179688 424.54785156 427.71484375 C430.46565137 469.92769801 429.2661099 515.91756402 423 558 C422.89345093 558.7181488 422.78690186 559.43629761 422.67712402 560.1762085 C410.11960036 643.58867921 375.80232054 722.40521588 312.88427734 802.64477539 C311.03413087 804.78889586 309.20332933 806.94679661 307.39111328 809.12304688 C300.15166971 817.77175192 292.45284444 825.85845348 284.4543457 833.80639648 C282.42877518 835.82117835 280.41421616 837.84653275 278.40039062 839.87304688 C271.94052329 846.33913531 265.46190355 852.5483607 258.26635742 858.19897461 C256.04409814 859.96495616 253.95602284 861.8208298 251.875 863.75 C244.9553685 869.95677426 237.44338472 875.4445689 230 881 C228.92202148 881.80727539 228.92202148 881.80727539 227.82226562 882.63085938 C160.82177586 932.59216918 82.35246001 962.14827327 0 974 C-1.22589844 974.18079102 -2.45179688 974.36158203 -3.71484375 974.54785156 C-42.98856604 980.05361586 -86.79081215 979.80135943 -126 974 C-127.05078735 973.84727631 -127.05078735 973.84727631 -128.12280273 973.69146729 C-158.77658523 969.22300784 -188.47970398 962.38791208 -218 953 C-218.91410645 952.71044434 -219.82821289 952.42088867 -220.77001953 952.12255859 C-282.33073742 932.33648159 -341.10417724 897.91165536 -388.62890625 854.16015625 C-389.92242276 852.9817137 -391.22369951 851.81082354 -392.55981445 850.6809082 C-399.10409011 845.11510213 -405.12181762 839.02915248 -411.18188477 832.94848633 C-413.05829475 831.06671726 -414.93998969 829.19035262 -416.82226562 827.31445312 C-422.76040976 821.37984858 -428.59799617 815.43433145 -434 809 C-434.845625 808.03578125 -435.69125 807.0715625 -436.5625 806.078125 C-498.98840332 733.6480705 -536.4495279 644.1562978 -550 550 C-550.18079102 548.77410156 -550.36158203 547.54820312 -550.54785156 546.28515625 C-556.05502531 507.00138012 -555.78406543 463.2202939 -550 424 C-549.85081116 422.96335205 -549.85081116 422.96335205 -549.6986084 421.90576172 C-545.13329442 390.2177327 -538.14541261 359.40159706 -528 329 C-527.64180176 327.92411621 -527.28360352 326.84823242 -526.91455078 325.73974609 C-507.47299325 268.05571065 -476.07355974 213.8176619 -436 168 C-435.36964844 167.27039063 -434.73929687 166.54078125 -434.08984375 165.7890625 C-432.40573185 163.84792214 -430.70400821 161.92368871 -429 160 C-428.09834106 158.97108643 -428.09834106 158.97108643 -427.1784668 157.92138672 C-421.10223493 151.06410149 -414.71324322 144.55969612 -408.22485352 138.09448242 C-406.4332405 136.3082533 -404.64706945 134.51670653 -402.86132812 132.72460938 C-397.07706327 126.93673268 -391.26467748 121.27285455 -385 116 C-384.03578125 115.154375 -383.0715625 114.30875 -382.078125 113.4375 C-309.64476342 51.00874638 -220.16535778 13.55177596 -126 0 C-124.16115234 -0.27118652 -124.16115234 -0.27118652 -122.28515625 -0.54785156 C-83.00138012 -6.05502531 -39.2202939 -5.78406543 0 0 Z M-203 227 C-203.49886719 227.47163574 -203.99773437 227.94327148 -204.51171875 228.42919922 C-212.50578812 236.01483124 -219.50193818 244.10127208 -226 253 C-226.41459473 253.56493164 -226.82918945 254.12986328 -227.25634766 254.71191406 C-251.71943776 288.51228351 -264.519811 329.52137477 -264.3125 371.125 C-264.30976578 372.27103195 -264.30976578 372.27103195 -264.30697632 373.44021606 C-264.25739672 385.83010845 -263.58123126 397.84680773 -261 410 C-260.82839355 410.81887695 -260.65678711 411.63775391 -260.47998047 412.48144531 C-254.38362383 440.66960373 -243.11942772 466.73135938 -226 490 C-225.35442139 490.91338135 -224.70884277 491.8267627 -224.04370117 492.76782227 C-214.66389667 505.42106383 -203.16107548 516.21609549 -191.99645996 527.26782227 C-189.74371726 529.5014587 -187.49852515 531.74260429 -185.25353718 533.98403072 C-182.54325834 536.68912635 -179.82834681 539.38955409 -177.11328125 542.08984375 C-176.60869196 542.59255232 -176.10410267 543.09526089 -175.58422279 543.61320305 C-170.43005854 548.74251927 -165.2505044 553.7992003 -159.70986938 558.51470947 C-156.68916239 561.13866866 -153.88056546 563.97456569 -151.0625 566.8125 C-150.48693359 567.38419922 -149.91136719 567.95589844 -149.31835938 568.54492188 C-145.12684475 572.74631051 -145.12684475 572.74631051 -144 575 C-144.87640137 575.27674561 -145.75280273 575.55349121 -146.65576172 575.83862305 C-149.74442835 576.91124585 -152.57461552 578.14518017 -155.5078125 579.58203125 C-156.56178223 580.09483643 -157.61575195 580.6076416 -158.70166016 581.13598633 C-159.8313623 581.68923584 -160.96106445 582.24248535 -162.125 582.8125 C-164.57146617 584.00300109 -167.01975675 585.18970703 -169.46875 586.375 C-170.0951236 586.67827713 -170.72149719 586.98155426 -171.36685181 587.29402161 C-177.75088914 590.37686758 -184.18583619 593.34680354 -190.625 596.3125 C-242.84856878 620.4863869 -289.32658501 648.43207077 -330.375 689.25 C-330.93380859 689.80413574 -331.49261719 690.35827148 -332.06835938 690.92919922 C-352.80492115 711.74589634 -369.65318437 736.06859479 -385 761 C-385.43683105 761.67885254 -385.87366211 762.35770508 -386.32373047 763.05712891 C-388.43943815 766.27154413 -388.43943815 766.27154413 -388.78564453 769.97241211 C-387.86042635 772.36021105 -386.7326295 773.69690782 -384.96484375 775.546875 C-384.32804688 776.21928223 -383.69125 776.89168945 -383.03515625 777.58447266 C-381.99681641 778.65640869 -381.99681641 778.65640869 -380.9375 779.75 C-380.2259375 780.49427246 -379.514375 781.23854492 -378.78125 782.00537109 C-373.73648319 787.25959768 -368.63487003 792.45886838 -363.5 797.625 C-362.86698975 798.26276367 -362.23397949 798.90052734 -361.58178711 799.55761719 C-357.21841043 803.90555537 -352.67402031 807.98971722 -348 812 C-347.22003662 812.67844971 -347.22003662 812.67844971 -346.42431641 813.37060547 C-324.65539856 832.29850746 -301.11547923 848.83443539 -276 863 C-275.00258789 863.5671875 -274.00517578 864.134375 -272.97753906 864.71875 C-244.52951977 880.80548101 -215.1315852 892.36628541 -184 902 C-182.93313965 902.33112793 -181.8662793 902.66225586 -180.76708984 903.00341797 C-158.91317384 909.65884363 -136.27252137 913.56268017 -113.625 916.3125 C-112.96124359 916.39381165 -112.29748718 916.47512329 -111.61361694 916.55889893 C-95.65694994 918.4838428 -79.74889165 919.21300811 -63.6875 919.1875 C-62.91142395 919.18656342 -62.1353479 919.18562683 -61.33575439 919.18466187 C34.11437865 918.9378479 130.13786272 886.71088967 210.26904297 821.42675781 C211.79202839 820.17142258 213.33405915 818.93926912 214.87890625 817.7109375 C226.48550302 808.47409297 237.05797254 798.01526281 247.5625 787.5625 C248.20469482 786.92497803 248.84688965 786.28745605 249.50854492 785.63061523 C255.54141778 779.57726793 261.13263508 773.20088201 266.4375 766.5 C267.45650391 765.21609375 267.45650391 765.21609375 268.49609375 763.90625 C268.99238281 763.2771875 269.48867188 762.648125 270 762 C268.4376316 757.62869266 266.20563181 753.79065819 263.75 749.875 C263.31888916 749.18704346 262.88777832 748.49908691 262.44360352 747.7902832 C254.22489177 734.89821459 244.89728812 722.64586561 235 711 C234.02209466 709.83597174 233.04423293 708.67190684 232.06640625 707.5078125 C227.13238563 701.66487297 222.16259759 695.98181923 216.66015625 690.66015625 C215 689 215 689 212.5 685.9375 C209.88660191 682.86675724 207.08977659 680.38354824 204.02734375 677.77734375 C202.14964868 676.13119489 200.41872302 674.42264884 198.6875 672.625 C194.13021058 668.00626398 189.0561275 664.05378353 184 660 C182.90896344 659.09649053 181.81915893 658.19149163 180.73046875 657.28515625 C165.55864861 644.75859159 149.11664729 633.69265538 132 624 C131.21157715 623.54512207 130.4231543 623.09024414 129.61083984 622.62158203 C113.27745797 613.24131745 96.33648924 605.64193455 79.09776306 598.12220764 C69.66156697 593.99558753 60.30918936 589.68632408 50.95614624 585.37533569 C41.69457228 581.10714219 32.39587052 576.96534782 23 573 C24.58927342 569.07508515 27.29000786 566.44738735 30.2565918 563.53222656 C30.79183975 562.99829285 31.32708771 562.46435913 31.8785553 561.91424561 C33.64755697 560.15172889 35.42342834 558.39629932 37.19921875 556.640625 C38.43563437 555.41048519 39.67153265 554.1798252 40.90693665 552.94866943 C44.16333454 549.7055748 47.42524174 546.46808344 50.68878174 543.23217773 C55.89522477 538.06882097 61.0950992 532.89887337 66.29154396 527.72545624 C68.09865995 525.92847045 69.90920389 524.13499421 71.72013855 522.34185791 C77.36439819 516.73880524 82.87424477 511.08846083 88 505 C88.91089225 503.96579949 89.82359716 502.93319214 90.73828125 501.90234375 C126.61383323 460.58285368 140.54612211 407.8151409 138 354 C133.85463676 301.10786126 106.87962076 251.6331113 66.91650391 217.20507812 C-3.04700984 159.45117266 -103.14725312 154.55919397 -203 227 Z " fill="#010101" transform="translate(553,3)"/></g>
</svg>
