<?xml version="1.0" standalone="no"?>
<!DOCTYPE svg PUBLIC "-//W3C//DTD SVG 20010904//EN"
 "http://www.w3.org/TR/2001/REC-SVG-20010904/DTD/svg10.dtd">
<svg version="1.0" xmlns="http://www.w3.org/2000/svg"
 width="1024.000000pt" height="1024.000000pt" viewBox="0 0 1024.000000 1024.000000"
 preserveAspectRatio="xMidYMid meet">

<g transform="translate(0.000000,1024.000000) scale(0.100000,-0.100000)"
fill="#000000" stroke="none">
<path d="M4955 8409 c-207 -22 -388 -72 -599 -165 -270 -118 -561 -363 -727
-612 -364 -544 -409 -1179 -125 -1757 87 -177 193 -324 335 -465 166 -165 363
-293 596 -387 225 -92 366 -121 618 -130 l167 -6 0 -88 0 -89 -840 0 -840 0 0
319 0 319 -30 26 c-31 26 -90 43 -109 31 -8 -4 -11 -118 -11 -351 l0 -344
-1399 0 c-1164 0 -1400 -2 -1410 -14 -8 -10 -3 -24 24 -59 20 -26 46 -52 58
-58 16 -9 129 -12 409 -12 l388 1 0 -69 0 -69 -67 0 -68 0 -103 -91 c-56 -50
-104 -101 -107 -112 -3 -12 -4 -398 -3 -857 l3 -835 25 3 c14 1 45 15 70 30
l45 28 3 422 c1 232 5 422 8 422 3 0 25 -16 48 -35 l43 -35 154 0 154 0 65 56
c36 30 77 69 92 85 l28 29 0 358 0 358 -89 87 c-66 65 -95 87 -115 87 -25 0
-26 2 -26 63 l0 64 97 6 c54 4 452 7 886 7 l787 0 0 -601 0 -602 38 7 c20 3
54 6 75 6 l37 0 0 228 0 229 83 -4 c119 -6 160 -19 218 -71 60 -54 91 -111
130 -244 17 -55 41 -123 55 -151 52 -102 153 -183 268 -213 55 -15 271 -19
262 -6 -3 5 -31 14 -63 21 -86 19 -199 77 -250 127 -53 54 -92 132 -133 274
-38 125 -75 194 -141 259 -48 48 -152 111 -182 111 -9 0 -19 5 -22 10 -4 6 98
116 226 245 l233 235 -101 0 -101 0 -229 -230 c-126 -127 -234 -230 -241 -230
-9 0 -12 69 -10 298 l3 297 732 5 732 5 33 32 c29 28 42 33 106 39 l72 7 0
-565 c0 -646 -12 -570 105 -663 l70 -55 142 0 141 0 49 39 c60 47 101 95 122
141 20 44 19 250 -2 330 l-14 55 -22 -49 c-12 -26 -39 -107 -60 -178 -33 -111
-45 -136 -77 -169 l-38 -39 -97 0 -97 0 -36 40 -36 40 0 254 c0 139 3 281 6
315 l7 61 61 0 c84 0 187 24 246 56 50 27 160 133 160 153 0 17 -33 13 -105
-14 -97 -37 -194 -55 -291 -55 l-85 0 3 108 3 107 341 3 341 2 40 35 c37 31
47 35 100 35 l60 0 6 -242 c4 -133 7 -415 7 -628 l0 -387 67 -6 c37 -4 71 -3
76 2 6 6 8 106 5 230 l-4 221 77 0 c180 0 280 -74 329 -242 11 -38 29 -99 40
-137 11 -37 38 -96 61 -131 75 -111 172 -169 325 -191 74 -11 214 -4 198 10
-5 4 -40 13 -79 20 -144 25 -270 115 -326 231 -15 30 -39 100 -53 155 -59 222
-148 334 -312 391 l-52 18 214 220 c117 122 221 232 231 245 l16 24 -99 -6
-99 -7 -225 -230 c-124 -127 -228 -230 -232 -230 -5 0 -8 135 -8 300 l0 300
1023 0 c562 0 1048 -3 1080 -6 l57 -7 0 -520 0 -520 38 -36 c21 -20 58 -53 83
-74 l46 -37 148 0 147 0 49 35 c77 57 119 123 130 203 7 60 -5 289 -17 301 -5
5 -29 -24 -49 -61 -8 -14 -28 -77 -45 -139 -31 -114 -51 -152 -97 -189 -22
-17 -40 -20 -117 -20 l-92 0 -37 38 -37 38 0 317 0 317 68 0 c89 0 191 23 252
56 78 42 183 164 142 164 -4 0 -46 -13 -93 -29 -95 -33 -206 -51 -305 -51
l-64 0 0 110 0 110 434 0 c419 0 434 1 459 20 34 27 70 87 63 105 -5 13 -71
15 -481 15 l-475 0 0 210 0 210 -75 0 -75 0 0 -210 0 -210 -1079 0 -1079 0 -6
23 c-3 12 -6 164 -6 337 l0 315 71 80 c306 347 459 739 459 1177 0 167 -12
270 -51 425 -48 197 -135 391 -253 567 -358 531 -1035 843 -1681 775z m315
-130 c342 -31 642 -150 925 -368 109 -84 273 -263 349 -383 99 -157 186 -368
224 -546 l20 -93 -21 7 c-41 12 -167 66 -171 73 -3 4 4 37 14 73 10 37 20 90
22 119 l3 52 -85 31 -85 32 5 54 c2 30 5 84 5 120 l0 65 -95 20 -95 20 -12 90
c-20 140 -15 135 -130 135 l-98 0 -44 100 -43 100 -36 0 c-21 -1 -71 -7 -112
-15 l-75 -14 -30 37 c-16 20 -52 60 -78 88 l-48 52 -82 -25 c-45 -14 -94 -32
-109 -39 -27 -14 -30 -12 -82 30 -31 25 -82 63 -114 85 l-59 40 -108 -81 -107
-81 -92 31 c-50 16 -101 33 -112 36 -18 6 -33 -7 -90 -76 -37 -46 -71 -87 -74
-91 -4 -5 -47 -1 -96 7 -143 25 -136 27 -172 -57 -17 -41 -34 -86 -37 -100
l-7 -27 -104 0 c-123 0 -116 7 -136 -140 l-11 -89 -61 -10 c-34 -6 -78 -16
-99 -22 l-39 -10 7 -87 c3 -48 8 -100 10 -117 5 -30 4 -30 -83 -60 l-87 -31 3
-34 c2 -19 12 -72 23 -118 10 -46 19 -87 19 -92 0 -9 -126 -64 -172 -75 -35
-9 -35 -1 -8 115 77 322 252 616 505 848 146 134 398 278 595 340 150 48 360
84 520 91 19 0 87 -4 150 -10z m-58 -201 c37 -29 68 -55 68 -60 0 -4 -10 -13
-22 -19 -12 -6 -43 -32 -69 -56 l-48 -44 -81 62 -81 62 73 53 c40 29 77 54 82
54 5 0 40 -23 78 -52z m-421 -49 c35 -12 66 -23 68 -24 2 -2 -20 -35 -49 -74
l-51 -69 -67 30 c-37 17 -69 32 -71 34 -5 4 89 124 98 124 4 0 37 -9 72 -21z
m817 -36 c28 -32 49 -60 47 -63 -2 -4 -34 -19 -71 -35 l-67 -28 -21 29 c-11
16 -36 46 -55 67 -19 21 -32 39 -30 41 4 4 130 45 141 45 3 1 29 -25 56 -56z
m-563 -110 l38 -32 -47 -72 c-25 -40 -46 -77 -46 -82 0 -5 -17 6 -38 25 -21
19 -59 49 -85 67 -54 37 -54 33 18 124 l46 58 38 -28 c20 -15 55 -42 76 -60z
m354 20 c28 -31 51 -62 51 -69 0 -6 -17 -24 -37 -40 -21 -16 -57 -46 -80 -67
l-42 -38 -17 33 c-9 18 -32 54 -51 80 l-34 47 43 35 c85 69 93 75 105 76 6 0
34 -26 62 -57z m-957 2 c69 -10 71 -14 48 -71 -12 -27 -25 -58 -30 -70 -8 -20
-10 -21 -76 -7 -38 8 -70 16 -73 19 -5 5 37 113 52 132 6 7 16 11 22 8 7 -2
33 -7 57 -11z m1492 -46 c14 -33 26 -66 26 -73 0 -7 -24 -18 -57 -26 -32 -7
-63 -14 -69 -17 -11 -4 -68 136 -59 145 5 5 101 30 121 31 6 1 23 -26 38 -60z
m-216 -41 c38 -95 38 -102 -2 -116 -19 -7 -50 -24 -70 -37 -44 -30 -46 -30
-46 -7 0 9 -10 45 -22 79 -12 35 -20 65 -17 67 7 6 124 65 130 66 4 0 16 -24
27 -52z m-1057 11 c49 -24 59 -34 53 -47 -4 -9 -17 -44 -28 -77 l-21 -60 -72
38 -72 38 21 57 c22 61 35 82 50 82 4 0 36 -14 69 -31z m534 -114 c41 -68 58
-122 81 -250 19 -113 23 -220 7 -236 -9 -9 -13 -3 -18 27 -12 70 -37 137 -88
234 -27 52 -46 86 -43 76 4 -13 -6 -39 -33 -80 -51 -78 -76 -136 -91 -210 -8
-38 -15 -55 -22 -48 -28 28 13 322 58 422 14 30 39 76 57 102 37 55 37 55 92
-37z m-335 -7 c112 -90 112 -89 80 -239 -11 -52 -20 -116 -20 -142 l0 -49 -57
49 c-32 27 -77 64 -100 82 -42 32 -43 34 -43 91 0 33 5 83 11 112 12 58 48
148 58 148 4 0 36 -23 71 -52z m658 -10 c28 -81 46 -190 38 -231 -6 -31 -54
-77 -166 -158 l-37 -27 -7 84 c-3 46 -13 112 -21 146 -20 85 -19 91 12 129 27
32 138 119 152 119 4 0 17 -28 29 -62z m-1302 -28 c-3 -22 -8 -57 -11 -77 l-6
-38 -70 3 -71 4 7 56 c11 95 7 92 87 92 l70 0 -6 -40z m177 13 c42 -13 47 -18
47 -44 0 -31 -11 -37 -29 -15 -14 17 -51 28 -51 15 0 -5 18 -41 40 -80 22 -39
40 -73 40 -75 0 -2 -19 5 -42 17 -24 12 -61 28 -83 34 l-40 12 4 59 c2 32 7
68 12 80 9 24 15 24 102 -3z m1801 19 c3 -5 8 -39 12 -75 l7 -67 -70 0 -70 0
-7 38 c-3 20 -6 54 -6 75 l0 37 64 0 c36 0 67 -4 70 -8z m-200 -33 c12 -63 7
-119 -11 -126 -10 -3 -45 -16 -78 -29 -32 -13 -61 -22 -63 -20 -2 2 15 34 37
70 23 37 41 71 41 76 0 6 -16 4 -36 -5 -47 -19 -46 -20 -42 12 2 22 11 30 43
39 22 7 54 13 71 13 27 1 32 -3 38 -30z m-214 -112 c0 -109 -5 -120 -90 -177
-87 -59 -104 -54 -44 12 40 45 64 94 64 133 0 46 -30 24 -68 -50 l-21 -40 -1
61 c0 33 6 67 13 77 17 22 128 88 138 81 5 -3 9 -47 9 -97z m-1205 64 c28 -16
56 -35 62 -43 9 -11 24 -138 16 -138 -1 0 -11 17 -22 38 -10 20 -31 48 -46 62
l-27 25 7 -45 c9 -56 29 -96 67 -137 52 -55 26 -57 -49 -4 -69 49 -72 52 -83
107 -13 64 -5 164 13 164 7 0 35 -13 62 -29z m-196 -160 c91 -28 94 -32 116
-130 l7 -34 -34 26 c-19 15 -51 33 -71 42 -31 13 -37 13 -37 1 0 -26 65 -110
109 -141 52 -36 67 -61 30 -50 -13 4 -50 23 -82 42 -60 37 -95 83 -119 161
l-13 42 -55 0 -55 -1 28 -20 c15 -12 37 -39 48 -61 l21 -41 -24 6 c-12 3 -55
9 -94 13 l-71 6 -12 69 c-15 92 -14 97 12 101 60 11 216 -6 296 -31z m1838 25
c3 -2 -11 -91 -22 -142 -4 -17 -15 -23 -50 -28 -25 -3 -65 -9 -90 -12 -55 -8
-56 0 -10 60 19 26 35 48 35 51 0 3 -21 5 -47 5 l-48 0 -18 -63 c-14 -47 -29
-72 -61 -102 -43 -41 -133 -92 -143 -81 -3 3 16 25 42 48 49 43 105 121 105
145 0 19 -60 -7 -112 -49 -23 -18 -38 -26 -35 -18 3 8 14 39 23 68 15 43 25
57 54 72 48 24 111 41 195 50 61 7 173 5 182 -4z m-2222 -53 c4 -27 10 -62 15
-80 7 -27 5 -32 -14 -36 -53 -13 -114 -18 -119 -10 -3 5 -8 40 -12 79 l-7 71
38 11 c22 5 51 10 66 11 25 1 27 -3 33 -46z m2408 30 c9 -6 3 -151 -8 -161
-10 -10 -130 14 -128 25 2 7 6 45 9 84 l7 71 55 -6 c30 -4 59 -9 65 -13z
m-1233 -115 c15 -34 25 -81 28 -129 4 -68 1 -82 -27 -146 -17 -39 -31 -76 -31
-82 0 -6 -4 -11 -10 -11 -5 0 -10 6 -10 13 0 7 -14 48 -31 92 -25 66 -30 89
-24 129 11 83 52 186 74 186 5 0 19 -24 31 -52z m-365 -40 c39 -30 86 -73 105
-94 34 -39 83 -136 115 -229 21 -60 33 -235 16 -235 -6 0 -43 30 -82 68 l-71
67 17 59 c31 105 4 189 -86 270 -28 25 -55 46 -60 46 -21 0 22 -129 72 -217
21 -37 28 -59 23 -77 -3 -14 -9 -26 -13 -26 -13 0 -71 87 -95 142 -31 69 -46
144 -46 222 0 65 6 81 24 68 6 -5 43 -34 81 -64z m763 -25 c-4 -70 -13 -117
-31 -167 -28 -76 -94 -179 -111 -173 -24 8 -16 45 28 132 43 83 74 185 56 185
-4 0 -34 -26 -67 -57 -89 -86 -114 -180 -74 -270 l20 -42 -75 -70 c-41 -39
-79 -71 -84 -71 -15 0 -12 113 6 190 8 38 39 115 67 172 44 86 61 110 107 146
30 24 75 61 100 82 25 21 49 39 54 39 5 1 6 -43 4 -96z m-928 -23 c4 -8 10
-37 13 -65 3 -27 9 -59 13 -70 6 -16 0 -14 -25 10 -36 32 -63 80 -79 135 -5
19 -13 44 -18 54 -6 16 3 12 40 -14 26 -19 51 -42 56 -50z m1062 7 c-16 -62
-73 -156 -95 -157 -5 0 -5 5 -2 11 4 6 11 41 15 77 8 62 12 69 52 104 24 20
44 35 45 34 1 -1 -6 -32 -15 -69z m-1461 -26 c54 -7 75 -16 120 -50 30 -23 96
-57 149 -77 92 -36 98 -40 198 -142 91 -94 212 -259 212 -289 0 -6 -62 13
-137 42 -185 71 -280 90 -385 77 -62 -8 -92 -7 -140 4 -82 19 -113 40 -199
132 l-72 77 58 9 c77 12 171 -5 232 -41 40 -23 44 -29 26 -31 -12 -2 -45 4
-74 12 -29 9 -68 16 -87 16 -30 0 -33 -2 -21 -16 7 -8 31 -25 53 -36 34 -17
52 -20 119 -15 76 5 82 4 141 -29 86 -47 133 -52 226 -23 41 12 68 25 60 27
-8 3 -41 32 -73 64 -32 33 -77 68 -100 79 -44 20 -157 27 -157 10 0 -19 67
-60 158 -96 50 -21 95 -41 97 -46 8 -12 -41 -22 -79 -16 -58 9 -147 58 -195
106 -25 25 -73 76 -107 112 -85 93 -102 103 -164 94 -27 -4 -50 -10 -50 -14 0
-4 26 -20 58 -35 32 -15 68 -35 81 -45 23 -17 21 -18 -79 -19 -55 0 -110 -4
-120 -7 -15 -5 -25 2 -40 27 -26 43 -54 117 -47 124 20 20 226 29 338 15z
m2073 -1 c32 -5 61 -11 63 -14 2 -2 -11 -37 -29 -77 l-34 -74 -121 0 c-67 0
-119 3 -116 8 2 4 38 26 79 48 42 23 72 45 67 49 -4 4 -28 10 -53 14 -58 8
-77 -5 -178 -116 -98 -108 -125 -131 -203 -168 -63 -30 -121 -38 -148 -21 -17
11 -6 17 105 61 81 32 144 72 144 92 0 18 -130 4 -175 -20 -22 -11 -68 -50
-102 -86 l-62 -66 37 0 c20 -1 48 -7 62 -15 50 -28 123 -15 211 38 39 23 61
31 75 26 55 -22 161 -3 210 37 l29 23 -31 1 c-17 0 -53 -7 -80 -15 -96 -29
-125 -14 -48 24 52 26 178 46 230 37 42 -8 38 -18 -37 -100 -96 -105 -200
-144 -336 -125 -68 10 -92 9 -159 -6 -82 -18 -271 -83 -336 -116 -21 -11 -38
-16 -38 -11 0 15 69 123 119 185 27 34 87 98 133 143 74 71 94 84 178 118 52
21 119 56 149 78 39 29 68 43 105 48 76 11 223 11 290 0z m204 -54 c33 -13 52
-26 51 -35 -1 -35 -36 -146 -45 -144 -8 2 -125 45 -131 48 -3 1 46 135 53 147
3 5 9 8 13 6 3 -2 30 -12 59 -22z m-2657 -59 c20 -48 25 -69 16 -72 -6 -2 -38
-14 -70 -26 -32 -11 -61 -19 -63 -16 -14 14 -42 156 -31 157 1 0 20 7 42 15
63 23 74 17 106 -58z m107 -181 c23 -30 42 -56 42 -58 0 -2 -17 -3 -38 -3 -21
-1 -53 -7 -72 -15 l-35 -14 40 -12 c22 -7 60 -13 85 -14 45 -1 103 -18 69 -19
-9 -1 -53 -12 -98 -25 l-82 -23 -23 31 c-29 39 -90 146 -85 150 8 6 135 55
144 56 6 0 29 -24 53 -54z m2490 18 l52 -23 -31 -53 c-60 -103 -78 -121 -113
-114 -73 14 -166 43 -159 49 3 4 31 7 60 7 30 0 75 5 101 12 l47 12 -30 12
c-17 7 -51 13 -77 14 -27 0 -48 3 -48 6 0 3 21 30 46 60 52 61 56 61 152 18z
m-2724 -101 c13 -27 36 -65 50 -86 l26 -38 -99 -48 -100 -47 38 -60 c78 -120
213 -221 369 -274 69 -24 71 -24 91 -6 28 26 26 33 -9 41 -16 4 -32 10 -34 13
-6 11 123 108 137 103 6 -2 57 -6 112 -10 90 -6 97 -8 72 -19 -82 -35 -140
-69 -179 -105 l-43 -40 65 5 c94 8 152 39 247 134 109 109 165 136 291 142
105 5 142 -5 174 -50 19 -28 20 -36 11 -111 -10 -79 -9 -83 13 -107 32 -35 44
-72 44 -139 0 -103 -59 -231 -139 -304 -33 -30 -48 -35 -107 -41 -151 -16
-288 -60 -369 -121 -23 -17 -50 -23 -115 -28 -69 -6 -98 -13 -154 -42 l-68
-34 -52 26 c-40 21 -68 27 -126 29 l-75 3 -58 83 c-111 159 -216 401 -258 596
-23 109 -36 399 -22 492 l8 55 75 7 c41 4 89 12 105 17 49 15 54 13 79 -36z
m2946 26 c36 -6 75 -13 87 -15 18 -3 23 -14 29 -62 12 -85 9 -274 -5 -382 -33
-237 -144 -518 -278 -705 l-58 -80 -65 0 c-49 -1 -80 -7 -124 -28 l-60 -28
-56 30 c-57 31 -91 39 -191 44 -36 3 -67 11 -85 24 -78 55 -185 93 -330 118
-54 9 -106 21 -114 25 -35 19 -99 100 -131 166 -31 63 -34 77 -34 160 0 83 2
94 28 133 28 42 29 47 22 122 -6 70 -5 81 14 107 32 45 68 55 175 50 81 -4
101 -9 155 -38 36 -20 94 -65 137 -107 84 -84 154 -122 245 -132 l60 -7 -43
43 c-24 25 -76 60 -118 81 l-75 37 113 7 113 8 55 -47 c30 -26 54 -50 54 -54
0 -4 -13 -10 -30 -14 -35 -8 -37 -15 -10 -40 18 -16 25 -17 62 -6 23 7 85 34
138 59 74 37 111 62 166 117 81 80 137 166 114 173 -16 6 -162 81 -169 88 -2
2 10 25 27 51 17 26 38 65 48 86 16 33 22 38 44 33 14 -3 54 -10 90 -17z
m-2462 -149 l34 -13 -94 -29 c-51 -17 -97 -34 -102 -38 -4 -5 13 -12 40 -16
49 -7 82 -1 166 32 41 15 53 16 102 5 61 -14 71 -25 29 -36 -14 -3 -60 -20
-101 -38 -58 -24 -70 -32 -56 -38 29 -12 113 -10 137 2 33 17 127 90 127 99 0
4 -25 18 -55 30 -79 32 -81 45 -6 37 91 -10 216 -44 298 -82 40 -19 73 -35 73
-37 0 -2 -31 -3 -69 -3 -63 0 -78 -5 -163 -47 -74 -38 -107 -49 -163 -54 -161
-14 -337 43 -446 146 -64 61 -64 61 72 88 93 19 104 18 177 -8z m2045 1 c43
-10 81 -22 85 -26 14 -14 -100 -105 -181 -145 -102 -50 -175 -64 -294 -56 -83
5 -100 10 -173 48 -68 36 -92 43 -157 48 l-77 5 28 18 c67 45 309 112 377 105
34 -3 33 -3 -35 -35 l-68 -33 48 -41 c64 -54 101 -69 168 -69 95 0 82 13 -89
85 l-40 17 45 14 c60 18 80 18 135 -6 66 -28 114 -34 165 -20 l45 12 -50 14
c-27 7 -75 22 -105 32 l-55 19 35 16 c47 21 100 20 193 -2z m-2363 -106 c24
-24 42 -46 39 -48 -2 -2 -27 -22 -55 -45 -29 -23 -56 -42 -61 -42 -10 0 -113
104 -113 114 0 7 119 64 135 65 6 1 31 -19 55 -44z m2613 9 c26 -14 47 -28 47
-32 0 -4 -24 -32 -54 -61 l-54 -54 -61 44 -60 44 47 47 c51 53 52 53 135 12z
m-2456 -125 c29 -13 52 -26 52 -29 -1 -3 -26 -27 -56 -55 l-54 -49 -56 29
c-30 17 -57 33 -59 37 -5 7 108 99 116 94 3 -1 29 -13 57 -27z m2281 -16 c28
-21 50 -42 48 -48 -1 -5 -27 -24 -57 -41 l-54 -32 -51 46 c-29 26 -52 50 -53
54 -1 8 87 57 104 58 6 0 34 -17 63 -37z m-981 -879 c18 -25 37 -62 43 -82 11
-42 13 -102 3 -102 -3 0 -29 17 -57 39 -46 34 -55 48 -89 136 -42 105 -53 154
-43 181 6 16 25 -7 143 -172z m-297 135 c0 -16 -18 -71 -39 -122 -21 -50 -40
-98 -42 -104 -2 -7 -31 -33 -64 -58 -54 -40 -60 -43 -63 -25 -5 32 28 131 56
170 98 134 135 179 143 174 5 -3 9 -18 9 -35z m-240 -8 c0 -6 -34 -27 -77 -48
-70 -35 -84 -38 -180 -41 -67 -3 -103 -1 -103 6 0 14 147 70 212 81 73 12 148
13 148 2z m750 -6 c67 -7 173 -39 220 -65 l35 -20 -115 2 c-111 3 -118 4 -192
42 -79 39 -93 61 -35 52 18 -3 57 -8 87 -11z m-690 -54 c0 -5 -7 -14 -16 -22
-37 -30 -58 -93 -62 -186 l-4 -91 -67 -12 c-36 -6 -101 -20 -145 -31 -43 -11
-80 -18 -83 -16 -9 9 36 109 71 155 48 65 113 118 211 169 84 45 95 48 95 34z
m605 -41 c117 -59 194 -131 240 -222 38 -78 44 -104 19 -94 -8 3 -74 18 -145
33 l-129 26 0 62 c0 78 -21 150 -61 204 -17 24 -27 42 -22 40 5 -2 49 -24 98
-49z m-309 -27 c50 -88 52 -156 9 -250 -35 -78 -50 -93 -70 -67 -39 51 -56
103 -58 180 -2 76 0 82 36 142 21 34 40 62 42 62 2 0 20 -30 41 -67z m-856 9
c0 -5 -13 -20 -28 -35 -25 -24 -70 -107 -86 -159 -4 -13 -16 -18 -46 -18 -44
0 -130 18 -143 30 -21 19 63 124 125 156 17 9 60 19 97 24 36 4 69 8 74 9 4 0
7 -3 7 -7z m-323 -31 l52 -23 -30 -40 c-16 -23 -29 -47 -29 -55 0 -7 -4 -13
-8 -13 -10 0 -152 145 -152 155 0 15 117 -2 167 -24z m540 11 l72 -7 -69 -72
c-56 -58 -78 -75 -121 -87 -74 -22 -179 -32 -179 -17 0 27 45 99 93 148 48 49
53 52 91 47 23 -3 73 -8 113 -12z m1397 -34 c26 -29 58 -75 72 -103 l25 -50
-43 -3 c-48 -4 -140 13 -178 33 -14 8 -56 45 -95 84 l-69 71 59 1 c33 0 80 4
105 8 74 14 77 13 124 -41z m184 26 c49 -24 104 -80 131 -132 10 -20 9 -23
-13 -32 -14 -5 -49 -12 -78 -15 -29 -4 -63 -8 -75 -11 -13 -2 -23 0 -23 5 0
31 -46 125 -81 165 l-41 46 64 0 c49 0 76 -6 116 -26z m252 -54 c-40 -44 -75
-80 -79 -80 -9 0 -73 101 -68 107 18 18 130 53 171 53 l48 0 -72 -80z m-1370
-97 c0 -27 54 -136 79 -157 27 -25 27 -37 -5 -67 -55 -52 -74 -140 -39 -179
10 -11 16 -22 14 -24 -2 -2 -38 -1 -79 2 l-74 5 -68 66 c-63 62 -68 70 -68
109 0 42 29 114 51 128 7 4 20 -5 33 -22 31 -45 106 -118 113 -111 3 4 -10 30
-29 59 -19 29 -43 68 -52 86 l-16 32 54 35 c30 19 57 39 61 45 10 16 25 12 25
-7z m357 -40 c24 -15 43 -34 43 -42 0 -12 -32 -63 -81 -130 -12 -17 -20 -33
-17 -36 9 -9 62 40 104 94 20 28 41 48 46 45 14 -9 58 -102 58 -124 0 -36 -27
-76 -90 -133 -59 -53 -62 -54 -133 -60 -39 -3 -74 -3 -76 -2 -1 2 4 14 13 27
19 26 21 89 5 121 -6 12 -25 36 -42 54 l-30 32 33 37 c36 41 80 128 80 158 0
17 2 17 23 3 12 -9 41 -29 64 -44z m-877 -7 c-5 -15 -10 -38 -10 -51 0 -14 -8
-29 -19 -34 -15 -9 -185 -41 -213 -41 -5 0 -8 22 -8 49 l0 50 58 6 c92 10 158
25 178 40 24 17 27 14 14 -19z m1371 -1 c25 -7 76 -16 113 -20 l67 -7 -3 -46
-3 -46 -50 3 c-49 3 -174 25 -179 32 -1 2 -7 28 -12 57 -10 47 -9 52 5 46 9
-4 37 -12 62 -19z m-1699 -12 l46 -6 4 -48 c1 -27 2 -49 0 -49 -4 0 -145 102
-157 113 -6 6 2 7 25 3 19 -4 56 -10 82 -13z m2052 -1 c-5 -4 -37 -26 -71 -49
-34 -24 -67 -43 -72 -43 -9 0 -7 40 5 78 2 6 20 13 41 13 21 1 52 4 68 8 32 8
46 4 29 -7z m-594 -57 c148 -31 150 -31 150 -71 0 -19 -10 -58 -22 -86 l-21
-50 -39 6 c-22 4 -56 14 -76 24 -32 15 -38 24 -52 78 -9 33 -27 75 -39 93
l-23 32 24 -6 c12 -3 57 -12 98 -20z m-850 6 c0 -6 -4 -12 -9 -16 -9 -5 -33
-74 -45 -126 -4 -20 -18 -32 -53 -47 -89 -38 -96 -38 -121 6 -12 22 -25 60
-28 85 -8 54 -2 58 113 86 86 22 143 26 143 12z m-290 -88 c0 -21 9 -57 19
-80 l19 -41 -36 15 c-21 8 -77 36 -127 61 l-90 46 40 7 c49 10 145 26 163 28
7 1 12 -13 12 -36z m1453 20 c42 -3 77 -10 77 -14 0 -10 -115 -69 -191 -100
-48 -18 -51 -18 -44 -2 5 10 15 44 23 76 13 52 18 58 36 53 12 -4 56 -9 99
-13z m347 -288 l0 -275 -447 2 -448 3 -3 50 c-6 84 6 134 31 139 274 50 558
160 762 295 50 33 93 60 98 60 4 1 7 -123 7 -274z m-1092 221 c60 -66 65 -133
13 -173 -23 -17 -102 -16 -128 2 -27 19 -38 70 -24 107 11 28 78 108 91 108 4
0 26 -20 48 -44z m-384 -112 l59 -54 -34 6 c-84 15 -209 46 -209 52 0 7 96 49
115 50 6 1 37 -23 69 -54z m799 32 c38 -13 65 -26 60 -29 -16 -9 -235 -58
-245 -55 -6 2 8 16 30 31 21 15 50 39 62 52 13 14 24 25 24 25 1 0 32 -11 69
-24z m-3941 -873 l48 -47 0 -305 0 -305 -47 -48 -47 -48 -99 0 -99 0 -65 60
c-36 33 -70 60 -74 60 -5 0 -9 129 -9 288 l0 287 61 53 61 52 111 0 111 0 48
-47z"/>
<path d="M4787 7613 c-12 -62 30 -188 78 -233 21 -19 23 -20 36 -4 8 10 13 37
12 65 -1 56 -32 116 -86 167 l-34 33 -6 -28z"/>
<path d="M5422 7584 c-31 -38 -62 -119 -62 -163 0 -15 7 -36 15 -47 15 -18 16
-18 41 11 50 60 81 151 69 207 -9 38 -27 35 -63 -8z"/>
<path d="M4688 6491 c-31 -10 -72 -28 -91 -40 -39 -24 -113 -109 -103 -118 12
-12 111 18 158 48 42 27 88 75 112 117 10 16 -7 15 -76 -7z"/>
<path d="M5515 6483 c29 -45 67 -83 110 -108 42 -24 145 -58 153 -50 11 10
-81 116 -116 134 -35 18 -136 51 -155 51 -5 0 -1 -12 8 -27z"/>
<path d="M1987 4433 c-4 -3 -7 -244 -7 -535 l0 -528 75 0 75 0 0 363 0 364 29
39 c16 21 56 66 90 99 l62 60 112 5 112 5 28 58 c15 31 25 62 22 67 -7 11
-213 14 -262 4 -17 -3 -67 -37 -112 -75 l-81 -70 0 76 0 75 -68 0 c-38 0 -72
-3 -75 -7z"/>
<path d="M4270 3905 l0 -535 75 0 75 0 0 365 0 364 61 71 c34 40 79 85 102
101 37 27 46 29 129 29 49 0 98 5 109 10 20 11 59 79 59 105 0 13 -21 15 -144
15 -163 0 -150 5 -263 -104 l-53 -50 0 82 0 82 -75 0 -75 0 0 -535z"/>
<path d="M5967 4434 c-4 -4 -7 -245 -7 -536 l0 -529 78 3 77 3 -3 495 c-2 272
-6 503 -9 513 -8 30 -116 71 -136 51z"/>
<path d="M8305 4433 c-64 -4 -87 -17 -177 -102 l-48 -44 0 72 0 71 -75 0 -75
0 2 -527 3 -528 73 1 73 0 -1 365 0 364 76 83 c42 45 86 88 97 95 12 6 69 14
127 17 l105 5 18 37 c10 20 19 49 20 65 l2 28 -80 1 c-44 0 -107 -1 -140 -3z"/>
<path d="M2626 4345 l-96 -86 0 -119 0 -119 28 4 c15 2 48 7 75 10 l47 6 0 78
0 78 49 51 50 52 106 0 106 0 50 -47 50 -46 -3 -75 -3 -75 -200 -57 c-110 -32
-225 -68 -255 -79 -52 -20 -57 -25 -88 -89 -31 -65 -32 -71 -32 -193 l0 -127
87 -71 87 -71 137 0 c134 0 137 0 175 29 21 15 52 40 67 55 15 14 29 26 30 26
1 0 2 -24 2 -52 l0 -53 88 -3 c93 -3 103 3 72 44 -12 16 -14 84 -15 430 l0
411 -90 87 -89 86 -170 0 -169 0 -96 -85z m464 -567 l0 -131 -77 -74 -77 -73
-102 0 -102 0 -36 40 c-35 39 -36 42 -36 120 0 120 10 128 230 195 96 30 181
54 188 54 9 1 12 -32 12 -131z"/>
<path d="M4922 3903 l3 -528 73 -3 72 -3 0 505 0 504 -31 26 c-23 19 -42 26
-75 26 l-44 0 2 -527z"/>
<path d="M7171 4342 l-92 -87 3 -115 3 -115 35 3 c19 1 52 5 73 8 l37 6 0 83
0 82 50 47 49 46 106 0 106 0 50 -47 50 -46 -3 -71 -3 -71 -90 -28 c-49 -15
-162 -51 -250 -80 l-159 -52 -35 -60 c-35 -59 -35 -63 -39 -186 -3 -123 -3
-126 23 -157 14 -17 55 -54 89 -82 l64 -50 137 0 137 0 64 50 63 51 3 -48 3
-48 74 -3 c95 -4 107 0 87 30 -12 19 -15 92 -16 438 l-2 415 -90 88 -89 87
-173 0 -173 0 -92 -88z m469 -560 l0 -129 -79 -76 -79 -77 -97 0 -97 0 -39 39
c-39 38 -39 39 -39 118 0 85 14 118 63 145 23 12 333 106 355 107 9 1 12 -31
12 -127z"/>
<path d="M5107 3294 c-35 -70 -118 -159 -177 -189 -95 -48 -122 -53 -509 -85
-68 -6 -158 -17 -200 -26 -99 -20 -264 -75 -340 -113 -42 -22 -68 -29 -88 -25
-15 3 -66 1 -112 -5 -146 -19 -272 -95 -388 -234 -35 -41 -63 -78 -63 -81 0
-12 226 -5 291 8 118 25 188 74 292 204 58 74 110 102 264 148 84 24 264 54
328 54 26 -1 21 -5 -40 -38 -103 -54 -220 -174 -271 -277 l-40 -79 -81 -12
c-152 -21 -239 -91 -335 -268 -32 -58 -58 -107 -58 -109 0 -8 219 22 258 36
100 38 169 111 228 242 12 29 27 56 33 59 12 8 334 47 339 41 2 -2 -43 -51
-99 -108 -91 -91 -116 -110 -199 -151 -80 -39 -90 -46 -63 -46 92 0 227 82
341 209 47 51 92 91 123 106 27 14 49 23 49 20 0 -3 -16 -26 -35 -51 -19 -25
-43 -72 -52 -104 -14 -47 -24 -61 -51 -76 -52 -28 -148 -137 -181 -206 -24
-51 -71 -233 -71 -277 0 -17 127 35 180 74 58 43 93 87 127 163 23 48 28 77
33 183 6 115 9 130 35 175 41 69 112 142 166 170 26 13 91 53 144 89 54 36
100 63 102 61 3 -2 -3 -26 -12 -53 -24 -69 -45 -171 -45 -220 0 -41 -1 -43
-60 -74 -35 -19 -84 -58 -117 -93 -114 -123 -130 -218 -67 -405 19 -58 40
-110 46 -116 8 -7 9 -3 4 15 -3 14 -18 67 -31 119 -40 149 -31 214 42 313 37
52 144 138 169 138 34 0 6 -246 -40 -346 -34 -75 -5 -52 35 28 38 75 59 158
59 230 0 32 3 58 8 58 9 -1 79 -124 107 -189 18 -40 20 -67 19 -218 0 -95 2
-173 6 -173 11 0 31 113 40 229 9 119 21 158 77 257 22 38 43 78 48 89 6 15
10 1 15 -55 8 -87 32 -175 65 -240 30 -59 63 -90 35 -33 -33 69 -50 157 -50
262 0 56 4 101 9 101 5 0 35 -20 68 -43 93 -69 148 -149 159 -230 7 -51 -11
-168 -37 -246 -21 -61 -23 -71 -10 -71 5 0 25 51 46 113 47 140 51 228 15 302
-32 67 -130 167 -195 201 -60 31 -57 27 -71 149 -5 50 -29 145 -51 202 -3 9
25 -7 63 -34 38 -27 108 -73 155 -101 92 -55 149 -110 194 -185 25 -43 28 -61
35 -180 7 -118 11 -140 36 -192 41 -84 109 -147 210 -196 47 -23 87 -39 90
-37 2 3 -4 55 -15 115 -13 77 -28 130 -51 174 -35 72 -123 168 -187 206 -31
18 -43 31 -43 48 0 31 -23 82 -59 133 -17 23 -29 42 -25 42 3 0 27 -9 53 -21
35 -14 72 -46 133 -112 92 -99 175 -156 265 -183 91 -26 108 -13 25 20 -86 33
-192 113 -269 204 -29 33 -53 62 -53 64 0 4 332 -30 335 -34 2 -2 21 -40 44
-86 82 -163 168 -223 356 -246 61 -7 110 -13 111 -12 1 0 -24 48 -55 106 -95
179 -198 262 -344 276 l-68 7 -37 74 c-21 43 -61 102 -96 140 -56 61 -180 154
-226 168 -11 4 -20 10 -20 14 0 18 229 -22 367 -64 150 -46 170 -59 284 -174
152 -155 214 -181 436 -181 l114 0 -44 58 c-74 96 -173 181 -256 221 -72 34
-83 36 -206 41 -123 6 -134 8 -206 43 -150 72 -324 111 -582 132 -278 23 -363
43 -449 109 -54 41 -124 130 -141 180 l-13 37 -27 -57z m-92 -291 c-44 -176
-206 -302 -486 -378 -92 -25 -406 -71 -416 -61 -11 11 56 106 121 171 115 113
222 160 479 209 75 15 171 39 214 55 99 36 96 36 88 4z m317 -2 c40 -16 123
-39 183 -51 278 -54 386 -98 499 -202 59 -53 145 -172 134 -184 -9 -8 -319 36
-402 57 -267 68 -441 197 -492 364 -7 25 -9 45 -4 45 5 0 41 -13 82 -29z
m-137 -233 c79 -240 80 -280 12 -418 -26 -52 -53 -112 -59 -132 -12 -39 -28
-51 -28 -21 0 10 -25 71 -56 135 -56 117 -56 119 -52 195 3 59 17 120 58 251
30 94 56 172 59 172 4 -1 33 -82 66 -182z m-1427 0 c-122 -156 -226 -208 -412
-208 l-71 1 80 77 c127 123 228 170 368 171 l69 1 -34 -42z m2877 27 c84 -22
156 -68 250 -157 l80 -77 -65 -1 c-196 0 -317 62 -430 220 l-21 30 63 0 c35 0
91 -7 123 -15z m-2605 -290 c0 -18 -74 -156 -100 -187 -42 -50 -137 -95 -229
-108 -41 -6 -76 -8 -78 -6 -8 8 89 147 136 195 50 52 115 87 182 100 53 11 89
13 89 6z m2301 -15 c99 -31 189 -114 263 -242 32 -55 34 -55 -74 -37 -86 14
-139 38 -189 88 -40 40 -111 165 -111 196 0 21 34 19 111 -5z m-1851 -250 c0
-128 -56 -226 -174 -302 -32 -21 -65 -38 -71 -38 -17 0 28 158 63 225 27 51
151 185 171 185 7 0 11 -26 11 -70z m1338 37 c92 -77 139 -153 176 -281 14
-48 26 -92 26 -98 0 -21 -124 59 -170 109 -62 68 -90 140 -90 233 0 39 4 70 9
70 5 0 27 -15 49 -33z"/>
</g>
</svg>
