<?xml version="1.0" encoding="UTF-8"?>
<svg version="1.1" xmlns="http://www.w3.org/2000/svg" width="512" height="512">
<path d="M0 0 C1.45108658 0.00273422 1.45108658 0.00273422 2.93148804 0.00552368 C17.26440977 0.05095174 31.21023917 0.55983928 45.3125 3.3125 C46.65803955 3.55395752 46.65803955 3.55395752 48.03076172 3.80029297 C107.84088904 14.62287989 165.35495829 48.68064457 202.3125 97.3125 C202.72918945 97.85277832 203.14587891 98.39305664 203.57519531 98.94970703 C211.2584873 108.9447116 218.00092968 119.40459036 224.3125 130.3125 C224.70679199 130.98974121 225.10108398 131.66698242 225.50732422 132.36474609 C238.68961173 155.2833756 247.29510918 180.85822563 252.625 206.6875 C252.77243652 207.39817627 252.91987305 208.10885254 253.07177734 208.84106445 C256.05713787 224.48358366 256.6873098 240.11919606 256.625 256 C256.62226578 257.45108658 256.62226578 257.45108658 256.61947632 258.93148804 C256.57404826 273.26440977 256.06516072 287.21023917 253.3125 301.3125 C253.15152832 302.20952637 252.99055664 303.10655273 252.82470703 304.03076172 C242.00212011 363.84088904 207.94435543 421.35495829 159.3125 458.3125 C158.77222168 458.72918945 158.23194336 459.14587891 157.67529297 459.57519531 C147.6802884 467.2584873 137.22040964 474.00092968 126.3125 480.3125 C125.63525879 480.70679199 124.95801758 481.10108398 124.26025391 481.50732422 C101.3416244 494.68961173 75.76677437 503.29510918 49.9375 508.625 C49.22682373 508.77243652 48.51614746 508.91987305 47.78393555 509.07177734 C32.14141634 512.05713787 16.50580394 512.6873098 0.625 512.625 C-0.34239105 512.62317719 -1.3097821 512.62135437 -2.30648804 512.61947632 C-16.63940977 512.57404826 -30.58523917 512.06516072 -44.6875 509.3125 C-45.58452637 509.15152832 -46.48155273 508.99055664 -47.40576172 508.82470703 C-107.21588904 498.00212011 -164.72995829 463.94435543 -201.6875 415.3125 C-202.10418945 414.77222168 -202.52087891 414.23194336 -202.95019531 413.67529297 C-210.6334873 403.6802884 -217.37592968 393.22040964 -223.6875 382.3125 C-224.08179199 381.63525879 -224.47608398 380.95801758 -224.88232422 380.26025391 C-238.06461173 357.3416244 -246.67010918 331.76677437 -252 305.9375 C-252.14743652 305.22682373 -252.29487305 304.51614746 -252.44677734 303.78393555 C-255.43213787 288.14141634 -256.0623098 272.50580394 -256 256.625 C-255.99817719 255.65760895 -255.99635437 254.6902179 -255.99447632 253.69351196 C-255.94904826 239.36059023 -255.44016072 225.41476083 -252.6875 211.3125 C-252.44604248 209.96696045 -252.44604248 209.96696045 -252.19970703 208.59423828 C-241.37712011 148.78411096 -207.31935543 91.27004171 -158.6875 54.3125 C-158.14722168 53.89581055 -157.60694336 53.47912109 -157.05029297 53.04980469 C-147.0552884 45.3665127 -136.59540964 38.62407032 -125.6875 32.3125 C-125.01025879 31.91820801 -124.33301758 31.52391602 -123.63525391 31.11767578 C-100.7166244 17.93538827 -75.14177437 9.32989082 -49.3125 4 C-48.60182373 3.85256348 -47.89114746 3.70512695 -47.15893555 3.55322266 C-31.51641634 0.56786213 -15.88080394 -0.0623098 0 0 Z " fill="#00C8C6" transform="translate(255.6875,-0.3125)"/>
<path d="M0 0 C1.40208912 0.50331404 2.80444859 1.00587542 4.20703125 1.5078125 C28.80359628 10.65590344 47.52140038 29.1400796 58.84716797 52.65161133 C68.3863591 73.50214727 68.91795748 94.91515355 64 117 C63.80664062 117.89847656 63.61328125 118.79695313 63.4140625 119.72265625 C59.00494443 136.8724077 47.83578506 153.12091942 35 165 C33.32855781 166.66187742 31.66093934 168.32762562 30 170 C30.63389648 170.29132813 31.26779297 170.58265625 31.92089844 170.8828125 C55.22279153 181.64925202 55.22279153 181.64925202 65 189 C66.03769531 189.75667969 67.07539063 190.51335937 68.14453125 191.29296875 C91.94650444 208.89621591 109.64443022 231.09184373 122 258 C122.54269531 259.13566406 123.08539063 260.27132813 123.64453125 261.44140625 C128.01390307 270.98765405 130.68686702 280.79524942 133 291 C133.24991699 292.09731445 133.24991699 292.09731445 133.50488281 293.21679688 C135.93997895 304.27808245 136.26750421 314.6756553 136 326 C126.1 326 116.2 326 106 326 C105.608125 321.730625 105.21625 317.46125 104.8125 313.0625 C103.20683692 297.24987146 99.6799298 283.45984804 93 269 C92.54882812 268.01644531 92.09765625 267.03289062 91.6328125 266.01953125 C76.36252056 234.11700241 48.76628966 209.92775963 15.75390625 197.57421875 C-16.38257698 186.48069657 -55.17764925 187.1842564 -86 202 C-86.61101562 202.29245605 -87.22203125 202.58491211 -87.8515625 202.88623047 C-101.71589431 209.62227028 -113.8602348 218.35533547 -125 229 C-125.72316406 229.64839844 -126.44632812 230.29679688 -127.19140625 230.96484375 C-138.5625797 241.56302151 -146.8141903 255.16600723 -153.19335938 269.22753906 C-153.9118223 270.80624391 -154.66454512 272.36925505 -155.421875 273.9296875 C-162.79091801 289.9869232 -164.69728625 307.59100712 -166 325 C-175.9 325 -185.8 325 -196 325 C-196 316.94769288 -195.99395028 309.65401132 -194.8125 301.8125 C-194.68085449 300.92175781 -194.54920898 300.03101563 -194.41357422 299.11328125 C-189.68688032 269.10117297 -176.17870942 239.76656339 -156 217 C-155.31550781 216.21713623 -155.31550781 216.21713623 -154.6171875 215.41845703 C-147.96499749 207.83914027 -141.08977511 201.07549732 -133 195 C-132.46648926 194.5968457 -131.93297852 194.19369141 -131.38330078 193.77832031 C-118.4447577 184.06227728 -104.74354655 176.60775196 -90 170 C-92.35085568 167.63270477 -94.70264583 165.27781995 -97.140625 163 C-116.26265956 144.86947835 -126.24656658 119.78676005 -127.38769531 93.72314453 C-127.98663269 66.98822396 -116.93942162 42.31487716 -98.6875 23.1875 C-73.57973905 -0.79498314 -33.34591042 -13.09049677 0 0 Z " fill="#FCFEFE" transform="translate(286,78)"/>
<path d="M0 0 C2.65130082 1.86941586 5.12985718 3.83166441 7.6015625 5.9296875 C8.6328125 6.6721875 9.6640625 7.4146875 10.7265625 8.1796875 C23.64467708 20.53614493 31.44535013 37.13518392 31.95288086 54.98364258 C32.02905155 63.05223935 31.51476606 70.32493925 28.6015625 77.9296875 C28.24964844 78.91195312 27.89773438 79.89421875 27.53515625 80.90625 C24.80798919 88.01668558 21.23337497 93.90941602 16.6015625 99.9296875 C15.8796875 100.9403125 15.1578125 101.9509375 14.4140625 102.9921875 C4.0340982 114.88379709 -12.32850798 122.90607901 -27.97021484 124.13110352 C-48.26958374 124.91391981 -65.26439774 120.94764148 -80.9375 107.296875 C-91.30471587 97.32460068 -98.0003449 84.88800632 -101.3984375 70.9296875 C-101.65427612 69.99950806 -101.65427612 69.99950806 -101.9152832 69.05053711 C-105.46774795 53.45667088 -101.17689388 36.49371378 -93.3671875 22.9921875 C-73.09756906 -8.53833008 -32.53882262 -19.82250114 0 0 Z " fill="#01C8C6" transform="translate(291.3984375,113.0703125)"/>
</svg>
